<?xml version="1.0" encoding="UTF-8"?>
<!DOCTYPE svg PUBLIC "-//W3C//DTD SVG 1.1//EN" "http://www.w3.org/Graphics/SVG/1.1/DTD/svg11.dtd">
<svg xmlns="http://www.w3.org/2000/svg" version="1.1" width="3335px" height="836px" style="shape-rendering:geometricPrecision; text-rendering:geometricPrecision; image-rendering:optimizeQuality; fill-rule:evenodd; clip-rule:evenodd" xmlns:xlink="http://www.w3.org/1999/xlink">
<g><path style="opacity:0.042" fill="#f8f8f8" d="M 963.5,4.5 C 968.695,5.92204 974.028,6.75537 979.5,7C 984.847,8.67661 990.181,10.3433 995.5,12C 999.833,12.3333 1004.17,12.6667 1008.5,13C 1009.91,13.3678 1010.91,14.2011 1011.5,15.5C 1008.63,16.208 1005.8,16.8747 1003,17.5C 993.509,15.9405 984.175,14.6072 975,13.5C 972.534,14.7766 970.034,14.7766 967.5,13.5C 966.029,10.864 964.363,8.364 962.5,6C 963.056,5.61742 963.389,5.11742 963.5,4.5 Z"/></g>
<g><path style="opacity:0.441" fill="#ee9d9b" d="M 2346.5,70.5 C 2349.9,70.1796 2353.23,70.513 2356.5,71.5C 2356.29,72.086 2355.96,72.586 2355.5,73C 2351.59,73.677 2347.76,74.5104 2344,75.5C 2343.29,73.0448 2344.13,71.3781 2346.5,70.5 Z"/></g>
<g><path style="opacity:0.078" fill="#e6e6e6" d="M 993.5,74.5 C 994.043,74.56 994.376,74.8933 994.5,75.5C 992.833,78.8333 991.167,82.1667 989.5,85.5C 987.296,82.553 986.296,79.2196 986.5,75.5C 989.059,75.8016 991.393,75.4682 993.5,74.5 Z"/></g>
<g><path style="opacity:0.971" fill="#e83332" d="M 428.5,93.5 C 436.084,91.9305 439.918,94.9305 440,102.5C 432.8,109.012 424.967,114.845 416.5,120C 400.384,133.588 389.55,150.421 384,170.5C 381.628,197.725 390.461,220.558 410.5,239C 417.975,244.308 425.308,249.808 432.5,255.5C 436.046,259.136 435.713,262.636 431.5,266C 429.726,266.97 427.893,267.804 426,268.5C 421.992,267.246 418.158,265.579 414.5,263.5C 392.846,249.16 377.679,229.826 369,205.5C 367.015,197.977 366.181,190.31 366.5,182.5C 366.667,177.5 366.833,172.5 367,167.5C 372.434,146.274 383.601,128.108 400.5,113C 409.206,105.438 418.539,98.9383 428.5,93.5 Z"/></g>
<g><path style="opacity:0.978" fill="#e73232" d="M 631.5,130.5 C 631.932,131.71 632.599,132.71 633.5,133.5C 646.685,151.234 651.185,170.901 647,192.5C 643.317,209.843 635.65,225.176 624,238.5C 613.733,250.217 601.567,259.384 587.5,266C 579.51,267.42 575.843,264.253 576.5,256.5C 584.056,250.119 592.056,244.285 600.5,239C 642.161,198.53 641.827,158.53 599.5,119C 592.667,114.167 585.833,109.333 579,104.5C 577.757,96.4091 581.257,92.9091 589.5,94C 606.579,102.694 620.579,114.86 631.5,130.5 Z"/></g>
<g><path style="opacity:0.981" fill="#000000" d="M 1472.5,121.5 C 1508.75,118.844 1536.92,132.511 1557,162.5C 1568.29,181.899 1574.96,202.899 1577,225.5C 1577.67,239.5 1577.67,253.5 1577,267.5C 1576.29,274.125 1575.13,280.625 1573.5,287C 1573.83,287.333 1574.17,287.667 1574.5,288C 1551.5,288.667 1528.5,288.667 1505.5,288C 1505.54,275.933 1505.37,263.766 1505,251.5C 1502.81,237.217 1496.31,225.384 1485.5,216C 1472.18,208.846 1458.85,208.846 1445.5,216C 1436.75,221.744 1428.92,228.577 1422,236.5C 1398.26,271.31 1384.09,309.644 1379.5,351.5C 1374.45,375.466 1374.29,399.466 1379,423.5C 1389.75,455.952 1410.25,464.119 1440.5,448C 1459.86,432.464 1472.52,412.631 1478.5,388.5C 1501.74,388.173 1524.91,388.506 1548,389.5C 1539.23,438.143 1517.06,479.643 1481.5,514C 1465.46,527.351 1447.46,537.017 1427.5,543C 1365.8,553.954 1325.97,529.454 1308,469.5C 1299.56,433.128 1298.23,396.462 1304,359.5C 1310.36,306.425 1326.36,256.425 1352,209.5C 1366.94,183.564 1386.44,161.731 1410.5,144C 1429.46,131.626 1450.13,124.126 1472.5,121.5 Z"/></g>
<g><path style="opacity:0.98" fill="#000000" d="M 173.5,128.5 C 218.193,128.042 262.86,128.542 307.5,130C 335.303,135.896 352.469,152.396 359,179.5C 365.6,222.86 355.6,261.86 329,296.5C 317.784,308.844 304.617,318.344 289.5,325C 301.138,329.636 309.971,337.469 316,348.5C 325.226,367.266 328.726,386.766 326.5,407C 322.963,437.355 312.796,465.189 296,490.5C 283.866,507.311 268.699,520.477 250.5,530C 239.366,535.023 227.699,538.023 215.5,539C 167.833,539.667 120.167,539.667 72.5,539C 71.7145,536.092 71.3812,533.258 71.5,530.5C 106.113,396.661 140.113,262.661 173.5,128.5 Z M 226.5,199.5 C 238.171,199.333 249.838,199.5 261.5,200C 276.585,201.086 285.252,209.086 287.5,224C 284.807,276.763 256.807,298.597 203.5,289.5C 211.171,259.49 218.837,229.49 226.5,199.5 Z M 185.5,360.5 C 200.152,361.318 214.652,361.318 229,360.5C 235.51,361.672 241.344,364.338 246.5,368.5C 249.815,372.963 252.482,377.797 254.5,383C 256.486,402.055 252.653,420.222 243,437.5C 234.719,449.774 223.386,457.774 209,461.5C 193.456,461.377 177.956,461.377 162.5,461.5C 161.28,461.113 160.613,460.28 160.5,459C 169.677,426.043 178.011,393.21 185.5,360.5 Z"/></g>
<g><path style="opacity:0.98" fill="#000000" d="M 1648.5,128.5 C 1709.83,128.333 1771.17,128.5 1832.5,129C 1833.06,129.725 1833.39,130.558 1833.5,131.5C 1826.29,159.45 1819.29,187.45 1812.5,215.5C 1774.5,215.5 1736.5,215.5 1698.5,215.5C 1692.99,240.939 1686.65,266.439 1679.5,292C 1714.5,292.333 1749.5,292.667 1784.5,293C 1785.06,293.725 1785.39,294.558 1785.5,295.5C 1779.21,321.476 1772.55,347.309 1765.5,373C 1729.83,373.5 1694.17,373.667 1658.5,373.5C 1652.71,398.998 1646.38,424.665 1639.5,450.5C 1676.5,451.333 1713.5,451.833 1750.5,452C 1751.36,452.689 1752.02,453.522 1752.5,454.5C 1745.23,482.467 1738.07,510.467 1731,538.5C 1669.9,539.664 1608.74,539.831 1547.5,539C 1546.71,537.915 1546.04,536.748 1545.5,535.5C 1580.82,399.229 1615.15,263.562 1648.5,128.5 Z"/></g>
<g><path style="opacity:0.979" fill="#000000" d="M 1872.5,128.5 C 1895.5,128.333 1918.5,128.5 1941.5,129C 1942.57,129.739 1943.24,130.739 1943.5,132C 1916.84,236.995 1890.18,342.829 1863.5,449.5C 1900.41,449.17 1937.24,449.504 1974,450.5C 1967.17,480.187 1960,509.853 1952.5,539.5C 1891.83,539.833 1831.16,539.5 1770.5,538.5C 1769.98,537.393 1769.64,536.226 1769.5,535C 1803.85,399.187 1838.18,263.687 1872.5,128.5 Z"/></g>
<g><path style="opacity:0.979" fill="#000000" d="M 2085.5,128.5 C 2108.84,128.333 2132.17,128.5 2155.5,129C 2156.1,130.062 2156.43,131.228 2156.5,132.5C 2131.52,232.429 2106.35,331.763 2081,430.5C 2079.67,436.828 2078.5,443.161 2077.5,449.5C 2113.83,449.333 2150.17,449.5 2186.5,450C 2187.06,450.725 2187.39,451.558 2187.5,452.5C 2180.32,481.456 2172.99,510.289 2165.5,539C 2105.17,539.667 2044.83,539.667 1984.5,539C 1983.43,538.261 1982.76,537.261 1982.5,536C 2017.34,400.299 2051.68,264.465 2085.5,128.5 Z"/></g>
<g><path style="opacity:0.973" fill="#e73232" d="M 443.5,130.5 C 450.685,130.848 453.519,134.515 452,141.5C 441.403,150.016 433.736,160.682 429,173.5C 425.906,193.302 432.24,209.302 448,221.5C 451.665,231.191 448.165,235.357 437.5,234C 412.863,215.934 405.03,192.434 414,163.5C 420.225,149.117 430.058,138.117 443.5,130.5 Z"/></g>
<g><path style="opacity:0.972" fill="#e73232" d="M 569.5,130.5 C 573.681,130.424 577.348,131.758 580.5,134.5C 605.354,155.648 610.854,180.981 597,210.5C 592.544,216.625 587.711,222.458 582.5,228C 579.056,230.807 575.223,232.973 571,234.5C 568.278,233.556 565.778,232.223 563.5,230.5C 562.48,228.568 562.313,226.568 563,224.5C 569.316,217.845 575.316,210.845 581,203.5C 589.673,185.126 588.006,168.126 576,152.5C 573.323,149.491 570.323,146.824 567,144.5C 562.434,138.996 563.267,134.329 569.5,130.5 Z"/></g>
<g><path style="opacity:0.102" fill="#411210" d="M 631.5,130.5 C 633.048,130.821 633.715,131.821 633.5,133.5C 632.599,132.71 631.932,131.71 631.5,130.5 Z"/></g>
<g><path style="opacity:0.976" fill="#e93333" d="M 500.5,136.5 C 520.462,134.639 537.129,140.972 550.5,155.5C 563.21,172.663 563.377,189.996 551,207.5C 546.473,212.027 541.973,216.527 537.5,221C 574.594,320.249 611.261,419.916 647.5,520C 647.481,522.969 647.314,526.135 647,529.5C 641.64,534.413 636.64,534.413 632,529.5C 620.158,499.208 609.325,469.208 599.5,439.5C 534.502,439.02 469.502,439.52 404.5,441C 391.752,470.241 379.585,499.741 368,529.5C 363.245,537.596 357.245,538.596 350,532.5C 349.366,529.196 350.2,526.363 352.5,524C 352.167,523.667 351.833,523.333 351.5,523C 392.88,423.358 433.88,322.691 474.5,221C 467.217,214.706 461.384,207.206 457,198.5C 450.489,177.013 456.322,159.846 474.5,147C 478.833,144.667 483.167,142.333 487.5,140C 492.031,139.093 496.364,137.927 500.5,136.5 Z M 498.5,152.5 C 516.18,149.269 530.013,154.936 540,169.5C 545.474,189.716 538.307,203.549 518.5,211C 502.921,215.022 489.421,211.522 478,200.5C 467.072,182.614 470.905,167.781 489.5,156C 492.802,155.339 495.802,154.172 498.5,152.5 Z M 555.5,319.5 C 555.5,320.5 555.5,321.5 555.5,322.5C 547.833,322.5 540.167,322.5 532.5,322.5C 505.505,323.418 478.505,323.585 451.5,323C 465.031,291.033 478.031,258.866 490.5,226.5C 501.171,227.805 511.838,227.805 522.5,226.5C 524.351,233.899 526.518,241.232 529,248.5C 538.048,272.569 546.882,296.235 555.5,319.5 Z M 516.5,337.5 C 530.986,338.653 545.486,338.653 560,337.5C 560.925,338.047 561.758,338.713 562.5,339.5C 572.37,366.736 582.37,393.903 592.5,421C 532.519,423.645 472.519,424.478 412.5,423.5C 412.34,421.801 412.506,420.134 413,418.5C 423.768,392.277 434.601,365.944 445.5,339.5C 469.33,338.833 492.997,338.167 516.5,337.5 Z"/></g>
<g><path style="opacity:0.977" fill="#000000" d="M 976.5,220.5 C 1012.98,219.825 1037.82,236.491 1051,270.5C 1060.75,301.967 1062.75,333.967 1057,366.5C 1055.29,380.324 1052.79,393.991 1049.5,407.5C 1003.5,407.5 957.5,407.5 911.5,407.5C 908.518,421.947 909.018,436.28 913,450.5C 923.777,472.995 939.277,477.495 959.5,464C 967.765,456.25 973.765,447.083 977.5,436.5C 997.825,435.334 1018.16,435.167 1038.5,436C 1040.64,439.359 1040.31,442.693 1037.5,446C 1027.82,481.706 1007.82,510.373 977.5,532C 948.517,549.428 918.85,550.762 888.5,536C 870.947,523.421 859.447,506.588 854,485.5C 843.247,422.765 850.914,362.765 877,305.5C 889.236,277.933 907.403,255.099 931.5,237C 945.386,228.285 960.386,222.785 976.5,220.5 Z M 966.5,294.5 C 979.575,293.278 989.075,298.944 995,311.5C 998.873,322.717 999.373,334.05 996.5,345.5C 972.833,346.833 949.167,346.833 925.5,345.5C 930.311,328.374 939.311,313.874 952.5,302C 957.101,299.202 961.768,296.702 966.5,294.5 Z"/></g>
<g><path style="opacity:0.975" fill="#000000" d="M 840.5,223.5 C 851.525,222.675 861.858,224.842 871.5,230C 872.687,231.019 873.687,232.186 874.5,233.5C 866.658,262.382 859.158,291.049 852,319.5C 850.612,320.554 849.112,320.72 847.5,320C 829.928,307.26 812.595,307.594 795.5,321C 789.24,327.026 784.073,333.86 780,341.5C 775.055,353.282 770.722,365.282 767,377.5C 753.391,431.498 739.891,485.498 726.5,539.5C 704.49,539.833 682.49,539.5 660.5,538.5C 659.978,537.393 659.645,536.226 659.5,535C 684.854,433.04 710.687,331.206 737,229.5C 758.427,228.34 779.927,228.174 801.5,229C 802.081,229.893 802.415,230.893 802.5,232C 800.069,240.442 798.235,248.942 797,257.5C 807.018,240.263 821.518,228.929 840.5,223.5 Z"/></g>
<g><path style="opacity:0.98" fill="#020202" d="M 1165.5,561.5 C 1164.17,561.5 1163.5,562.167 1163.5,563.5C 1162.66,563.842 1162.33,564.508 1162.5,565.5C 1161.66,565.842 1161.33,566.508 1161.5,567.5C 1160.83,567.5 1160.5,567.833 1160.5,568.5C 1159.66,568.842 1159.33,569.508 1159.5,570.5C 1159.5,570.833 1159.5,571.167 1159.5,571.5C 1158.66,571.842 1158.33,572.508 1158.5,573.5C 1157.83,573.5 1157.5,573.833 1157.5,574.5C 1152.02,582.123 1147.02,590.123 1142.5,598.5C 1141.17,599.167 1140.17,600.167 1139.5,601.5C 1138.6,602.29 1137.93,603.29 1137.5,604.5C 1136.83,604.5 1136.5,604.833 1136.5,605.5C 1135.66,605.842 1135.33,606.508 1135.5,607.5C 1134.17,608.167 1133.17,609.167 1132.5,610.5C 1131.83,610.5 1131.5,610.833 1131.5,611.5C 1130.5,611.833 1129.83,612.5 1129.5,613.5C 1128.66,613.842 1128.33,614.508 1128.5,615.5C 1106.38,639.886 1078.72,651.886 1045.5,651.5C 1036.78,651.23 1028.11,650.563 1019.5,649.5C 1018.35,647.235 1018.19,644.902 1019,642.5C 1021.64,633.595 1023.81,624.595 1025.5,615.5C 716.666,615.833 408,615.5 99.5,614.5C 408.833,614.5 718.167,614.5 1027.5,614.5C 1027.5,613.5 1027.5,612.5 1027.5,611.5C 1027.5,611.167 1027.5,610.833 1027.5,610.5C 1028.34,610.158 1028.67,609.492 1028.5,608.5C 1029.4,607.791 1029.74,606.791 1029.5,605.5C 1029.5,604.833 1029.5,604.167 1029.5,603.5C 1030.04,601.883 1030.37,600.216 1030.5,598.5C 1032.86,591.049 1034.86,583.383 1036.5,575.5C 1036.5,575.167 1036.5,574.833 1036.5,574.5C 1037.4,573.791 1037.74,572.791 1037.5,571.5C 1046.17,571.5 1054.83,571.5 1063.5,571.5C 1065.56,571.483 1067.56,571.15 1069.5,570.5C 1070.61,570.443 1071.61,570.11 1072.5,569.5C 1073.17,569.167 1073.83,568.833 1074.5,568.5C 1076.03,568.573 1077.03,567.906 1077.5,566.5C 1078.17,566.5 1078.5,566.167 1078.5,565.5C 1079.49,565.672 1080.16,565.338 1080.5,564.5C 1081.17,564.5 1081.5,564.167 1081.5,563.5C 1082.34,563.158 1082.67,562.492 1082.5,561.5C 1086.33,557.181 1089.17,552.181 1091,546.5C 1093.51,538.471 1095.01,530.304 1095.5,522C 1094.9,520.938 1094.57,519.772 1094.5,518.5C 1095.75,497.274 1097.09,476.108 1098.5,455C 1097.92,450.431 1097.58,445.764 1097.5,441C 1100.68,370.232 1103.68,299.399 1106.5,228.5C 1128.84,228.333 1151.17,228.5 1173.5,229C 1174.52,229.519 1175.18,230.353 1175.5,231.5C 1168.53,303.332 1162.03,375.332 1156,447.5C 1185.87,374.734 1216.03,302.068 1246.5,229.5C 1269.83,228.334 1293.16,228.167 1316.5,229C 1317.02,229.561 1317.36,230.228 1317.5,231C 1267.51,341.471 1216.85,451.638 1165.5,561.5 Z"/></g>
<g><path style="opacity:0.997" fill="#c59191" d="M 2982.5,619.5 C 2982.67,500.166 2982.5,380.833 2982,261.5C 2981.63,259.509 2980.79,257.842 2979.5,256.5C 2971.14,242.527 2961.64,241.861 2951,254.5C 2950.54,255.094 2950.37,255.761 2950.5,256.5C 2949.55,257.919 2949.22,259.585 2949.5,261.5C 2948.73,262.263 2948.23,263.263 2948,264.5C 2947.5,382.833 2947.33,501.166 2947.5,619.5C 2946.17,560.837 2945.5,501.837 2945.5,442.5C 2945.67,383.5 2945.83,324.5 2946,265.5C 2947.17,261.494 2948.33,257.494 2949.5,253.5C 2952.68,250.822 2955.68,247.988 2958.5,245C 2962.28,242.056 2966.28,241.723 2970.5,244C 2975.37,247.873 2979.54,252.373 2983,257.5C 2983.33,259.833 2983.67,262.167 2984,264.5C 2984.17,323.667 2984.33,382.833 2984.5,442C 2984.5,501.504 2983.83,560.67 2982.5,619.5 Z"/></g>
<g><path style="opacity:1" fill="#f66f6f" d="M 2979.5,260.5 C 2980.22,260.918 2980.72,261.584 2981,262.5C 2981.5,381.5 2981.67,500.5 2981.5,619.5C 2981.17,619.5 2980.83,619.5 2980.5,619.5C 2980.83,499.812 2980.49,380.145 2979.5,260.5 Z"/></g>
<g><path style="opacity:0.999" fill="#f33535" d="M 2979.5,260.5 C 2980.49,380.145 2980.83,499.812 2980.5,619.5C 2979.83,619.5 2979.17,619.5 2978.5,619.5C 2978.5,501.167 2978.5,382.833 2978.5,264.5C 2977.17,264.5 2975.83,264.5 2974.5,264.5C 2974.5,382.833 2974.5,501.167 2974.5,619.5C 2968.83,619.5 2963.17,619.5 2957.5,619.5C 2956.17,499.709 2956.17,379.875 2957.5,260C 2956.56,257.099 2955.4,256.932 2954,259.5C 2953.5,379.5 2953.33,499.5 2953.5,619.5C 2953.17,619.5 2952.83,619.5 2952.5,619.5C 2952.5,498.833 2952.5,378.167 2952.5,257.5C 2953.11,256.609 2953.44,255.609 2953.5,254.5C 2956.76,254.701 2959.43,253.534 2961.5,251C 2964.66,250.398 2967.66,250.898 2970.5,252.5C 2973.8,254.959 2976.8,257.625 2979.5,260.5 Z"/></g>
<g><path style="opacity:0.999" fill="#f22828" d="M 2957.5,619.5 C 2956.17,619.5 2954.83,619.5 2953.5,619.5C 2953.33,499.5 2953.5,379.5 2954,259.5C 2955.4,256.932 2956.56,257.099 2957.5,260C 2956.17,379.875 2956.17,499.709 2957.5,619.5 Z"/></g>
<g><path style="opacity:1" fill="#f66a69" d="M 2979.5,256.5 C 2979.5,257.833 2979.5,259.167 2979.5,260.5C 2976.8,257.625 2973.8,254.959 2970.5,252.5C 2967.66,250.898 2964.66,250.398 2961.5,251C 2959.43,253.534 2956.76,254.701 2953.5,254.5C 2957.86,247.543 2963.86,245.71 2971.5,249C 2974.04,251.705 2976.7,254.205 2979.5,256.5 Z"/></g>
<g><path style="opacity:1" fill="#f99b9a" d="M 2979.5,256.5 C 2976.7,254.205 2974.04,251.705 2971.5,249C 2963.86,245.71 2957.86,247.543 2953.5,254.5C 2952.5,255.167 2951.5,255.833 2950.5,256.5C 2950.37,255.761 2950.54,255.094 2951,254.5C 2961.64,241.861 2971.14,242.527 2979.5,256.5 Z"/></g>
<g><path style="opacity:1" fill="#f99393" d="M 2949.5,261.5 C 2949.5,380.833 2949.5,500.167 2949.5,619.5C 2948.83,619.5 2948.17,619.5 2947.5,619.5C 2947.33,501.166 2947.5,382.833 2948,264.5C 2948.23,263.263 2948.73,262.263 2949.5,261.5 Z"/></g>
<g><path style="opacity:0.998" fill="#f45151" d="M 2952.5,257.5 C 2952.5,378.167 2952.5,498.833 2952.5,619.5C 2951.83,619.5 2951.17,619.5 2950.5,619.5C 2950.33,499.833 2950.5,380.166 2951,260.5C 2951.23,259.263 2951.73,258.263 2952.5,257.5 Z"/></g>
<g><path style="opacity:1" fill="#f22222" d="M 2978.5,619.5 C 2977.17,619.5 2975.83,619.5 2974.5,619.5C 2974.5,501.167 2974.5,382.833 2974.5,264.5C 2975.83,264.5 2977.17,264.5 2978.5,264.5C 2978.5,382.833 2978.5,501.167 2978.5,619.5 Z"/></g>
<g><path style="opacity:1" fill="#f78b8b" d="M 2979.5,256.5 C 2980.79,257.842 2981.63,259.509 2982,261.5C 2982.5,380.833 2982.67,500.166 2982.5,619.5C 2982.17,619.5 2981.83,619.5 2981.5,619.5C 2981.67,500.5 2981.5,381.5 2981,262.5C 2980.72,261.584 2980.22,260.918 2979.5,260.5C 2979.5,259.167 2979.5,257.833 2979.5,256.5 Z"/></g>
<g><path style="opacity:0.094" fill="#460f0f" d="M 555.5,319.5 C 556.434,320.568 556.768,321.901 556.5,323.5C 548.316,323.826 540.316,323.492 532.5,322.5C 540.167,322.5 547.833,322.5 555.5,322.5C 555.5,321.5 555.5,320.5 555.5,319.5 Z"/></g>
<g><path style="opacity:0.999" fill="#f4b1b1" d="M 3122.5,619.5 C 3122.67,530.499 3122.5,441.499 3122,352.5C 3121.99,348.654 3120.82,345.321 3118.5,342.5C 3117.32,337.052 3113.99,333.552 3108.5,332C 3104.74,331.262 3101.07,331.595 3097.5,333C 3096.18,333.816 3095.51,334.983 3095.5,336.5C 3094.39,336.557 3093.39,336.89 3092.5,337.5C 3089.52,340.156 3087.69,343.489 3087,347.5C 3086.83,392.667 3086.67,437.833 3086.5,483C 3086.5,528.505 3087.17,573.672 3088.5,618.5C 3089.17,618.5 3089.83,618.5 3090.5,618.5C 3090.5,618.833 3090.5,619.167 3090.5,619.5C 3088.5,619.5 3086.5,619.5 3084.5,619.5C 3084.33,528.166 3084.5,436.833 3085,345.5C 3088.01,340.15 3091.51,335.15 3095.5,330.5C 3103.58,327.283 3110.75,328.617 3117,334.5C 3119.61,339.39 3121.95,344.39 3124,349.5C 3124.17,394.5 3124.33,439.5 3124.5,484.5C 3124.5,529.838 3123.83,574.838 3122.5,619.5 Z"/></g>
<g><path style="opacity:0.999" fill="#f56665" d="M 3108.5,334.5 C 3110.8,335.787 3113.14,337.12 3115.5,338.5C 3116.04,340.261 3117.04,341.594 3118.5,342.5C 3118.52,344.927 3119.02,347.26 3120,349.5C 3120.5,439.499 3120.67,529.499 3120.5,619.5C 3119.17,619.5 3117.83,619.5 3116.5,619.5C 3117.83,574.544 3118.49,529.378 3118.5,484C 3118.33,439.167 3118.17,394.333 3118,349.5C 3118,346.949 3117.16,344.949 3115.5,343.5C 3113.42,340.349 3111.08,337.349 3108.5,334.5 Z"/></g>
<g><path style="opacity:1" fill="#f33c3c" d="M 3094.5,343.5 C 3094.5,435.167 3094.5,526.833 3094.5,618.5C 3093.17,618.5 3091.83,618.5 3090.5,618.5C 3090.33,530.166 3090.5,441.833 3091,353.5C 3091.99,350.576 3092.65,347.576 3093,344.5C 3093.38,343.944 3093.88,343.611 3094.5,343.5 Z"/></g>
<g><path style="opacity:0.999" fill="#f23434" d="M 3106.5,334.5 C 3107.17,334.5 3107.83,334.5 3108.5,334.5C 3111.08,337.349 3113.42,340.349 3115.5,343.5C 3115.83,435.335 3115.5,527.002 3114.5,618.5C 3114.67,526.499 3114.5,434.499 3114,342.5C 3110.58,340.964 3108.75,342.131 3108.5,346C 3109.49,436.815 3109.83,527.649 3109.5,618.5C 3104.64,618.181 3099.97,618.514 3095.5,619.5C 3093.83,619.5 3092.17,619.5 3090.5,619.5C 3090.5,619.167 3090.5,618.833 3090.5,618.5C 3091.83,618.5 3093.17,618.5 3094.5,618.5C 3094.5,526.833 3094.5,435.167 3094.5,343.5C 3096.02,337.31 3100.02,334.31 3106.5,334.5 Z"/></g>
<g><path style="opacity:0.999" fill="#f22e2e" d="M 3114.5,618.5 C 3112.83,618.5 3111.17,618.5 3109.5,618.5C 3109.83,527.649 3109.49,436.815 3108.5,346C 3108.75,342.131 3110.58,340.964 3114,342.5C 3114.5,434.499 3114.67,526.499 3114.5,618.5 Z"/></g>
<g><path style="opacity:1" fill="#f78181" d="M 3118.5,342.5 C 3117.04,341.594 3116.04,340.261 3115.5,338.5C 3113.14,337.12 3110.8,335.787 3108.5,334.5C 3107.83,334.5 3107.17,334.5 3106.5,334.5C 3102.45,332.8 3098.79,333.466 3095.5,336.5C 3095.51,334.983 3096.18,333.816 3097.5,333C 3101.07,331.595 3104.74,331.262 3108.5,332C 3113.99,333.552 3117.32,337.052 3118.5,342.5 Z"/></g>
<g><path style="opacity:0.996" fill="#a17b7b" d="M 2913.5,348.5 C 2914.25,349.531 2914.92,350.698 2915.5,352C 2915.31,440.097 2915.31,528.264 2915.5,616.5C 2915.06,617.739 2914.39,618.739 2913.5,619.5C 2913.5,529.167 2913.5,438.833 2913.5,348.5 Z"/></g>
<g><path style="opacity:0.999" fill="#ee4848" d="M 3115.5,343.5 C 3117.16,344.949 3118,346.949 3118,349.5C 3118.17,394.333 3118.33,439.167 3118.5,484C 3118.49,529.378 3117.83,574.544 3116.5,619.5C 3109.5,619.5 3102.5,619.5 3095.5,619.5C 3099.97,618.514 3104.64,618.181 3109.5,618.5C 3111.17,618.5 3112.83,618.5 3114.5,618.5C 3115.5,527.002 3115.83,435.335 3115.5,343.5 Z"/></g>
<g><path style="opacity:0.999" fill="#f78989" d="M 3118.5,342.5 C 3120.82,345.321 3121.99,348.654 3122,352.5C 3122.5,441.499 3122.67,530.499 3122.5,619.5C 3121.83,619.5 3121.17,619.5 3120.5,619.5C 3120.67,529.499 3120.5,439.499 3120,349.5C 3119.02,347.26 3118.52,344.927 3118.5,342.5 Z"/></g>
<g><path style="opacity:0.999" fill="#f55151" d="M 3106.5,334.5 C 3100.02,334.31 3096.02,337.31 3094.5,343.5C 3093.88,343.611 3093.38,343.944 3093,344.5C 3092.65,347.576 3091.99,350.576 3091,353.5C 3090.5,441.833 3090.33,530.166 3090.5,618.5C 3089.83,618.5 3089.17,618.5 3088.5,618.5C 3088.33,528.833 3088.5,439.166 3089,349.5C 3090.38,345.596 3091.55,341.596 3092.5,337.5C 3093.39,336.89 3094.39,336.557 3095.5,336.5C 3098.79,333.466 3102.45,332.8 3106.5,334.5 Z"/></g>
<g><path style="opacity:0.999" fill="#f33434" d="M 3048.5,618.5 C 3047.51,618.328 3046.84,618.662 3046.5,619.5C 3041.5,619.5 3036.5,619.5 3031.5,619.5C 3030.79,618.596 3029.79,618.263 3028.5,618.5C 3028.33,558.832 3028.5,499.166 3029,439.5C 3029.39,436.812 3029.89,434.145 3030.5,431.5C 3030.39,430.558 3030.06,429.725 3029.5,429C 3027.87,428.506 3026.2,428.34 3024.5,428.5C 3025.44,426.228 3026.77,424.228 3028.5,422.5C 3031.23,420.712 3034.23,420.212 3037.5,421C 3041.65,426.158 3045.15,431.658 3048,437.5C 3048.5,497.832 3048.67,558.166 3048.5,618.5 Z"/></g>
<g><path style="opacity:1" fill="#f78282" d="M 3092.5,337.5 C 3091.55,341.596 3090.38,345.596 3089,349.5C 3088.5,439.166 3088.33,528.833 3088.5,618.5C 3087.17,573.672 3086.5,528.505 3086.5,483C 3086.67,437.833 3086.83,392.667 3087,347.5C 3087.69,343.489 3089.52,340.156 3092.5,337.5 Z"/></g>
<g><path style="opacity:0.998" fill="#f22d2d" d="M 3024.5,428.5 C 3026.2,428.34 3027.87,428.506 3029.5,429C 3030.06,429.725 3030.39,430.558 3030.5,431.5C 3029.89,434.145 3029.39,436.812 3029,439.5C 3028.5,499.166 3028.33,558.832 3028.5,618.5C 3029.79,618.263 3030.79,618.596 3031.5,619.5C 3029.17,619.5 3026.83,619.5 3024.5,619.5C 3024.82,556.148 3024.48,492.815 3023.5,429.5C 3023.5,428.833 3023.83,428.5 3024.5,428.5 Z"/></g>
<g><path style="opacity:0.999" fill="#f33939" d="M 3023.5,429.5 C 3024.48,492.815 3024.82,556.148 3024.5,619.5C 3023.83,619.5 3023.17,619.5 3022.5,619.5C 3022.17,555.998 3022.5,492.664 3023.5,429.5 Z"/></g>
<g><path style="opacity:0.996" fill="#f77e7d" d="M 2845.5,428.5 C 2842.35,426.182 2839.35,423.682 2836.5,421C 2831.91,420.058 2827.58,420.558 2823.5,422.5C 2821.2,425.297 2818.7,427.964 2816,430.5C 2815.5,493.832 2815.33,557.166 2815.5,620.5C 2815.5,621.167 2815.17,621.5 2814.5,621.5C 2814.33,557.499 2814.5,493.499 2815,429.5C 2817.44,425.855 2820.28,422.522 2823.5,419.5C 2828.57,416.676 2833.57,416.842 2838.5,420C 2841.45,422.436 2843.78,425.269 2845.5,428.5 Z"/></g>
<g><path style="opacity:0.998" fill="#f1b4b4" d="M 3046.5,619.5 C 3046.84,618.662 3047.51,618.328 3048.5,618.5C 3048.83,618.5 3049.17,618.5 3049.5,618.5C 3050.5,618.5 3051.5,618.5 3052.5,618.5C 3052.83,557.095 3052.5,495.762 3051.5,434.5C 3051.91,431.401 3050.74,429.067 3048,427.5C 3046.12,420.801 3041.62,417.135 3034.5,416.5C 3031.58,417.586 3028.58,418.252 3025.5,418.5C 3026.06,417.21 3027.06,416.377 3028.5,416C 3033.17,415.333 3037.83,415.333 3042.5,416C 3046.82,420.663 3050.82,425.663 3054.5,431C 3054.49,493.685 3054.49,556.519 3054.5,619.5C 3051.83,619.5 3049.17,619.5 3046.5,619.5 Z"/></g>
<g><path style="opacity:1" fill="#f6b7b7" d="M 3025.5,418.5 C 3022.02,423.422 3019.18,428.756 3017,434.5C 3016.5,496.166 3016.33,557.832 3016.5,619.5C 3015.17,589.341 3014.5,558.841 3014.5,528C 3014.67,497.5 3014.83,467 3015,436.5C 3016.92,433.085 3018.25,429.419 3019,425.5C 3020.67,422.669 3022.83,420.336 3025.5,418.5 Z"/></g>
<g><path style="opacity:0.998" fill="#f67070" d="M 3043.5,424.5 C 3046.51,427.514 3049.17,430.847 3051.5,434.5C 3052.5,495.762 3052.83,557.095 3052.5,618.5C 3051.5,618.5 3050.5,618.5 3049.5,618.5C 3049.67,557.166 3049.5,495.832 3049,434.5C 3046.94,431.279 3045.11,427.946 3043.5,424.5 Z"/></g>
<g><path style="opacity:0.999" fill="#f56565" d="M 2823.5,422.5 C 2823.66,423.873 2823.49,425.207 2823,426.5C 2820.93,427.734 2819.43,429.401 2818.5,431.5C 2817.73,432.263 2817.23,433.263 2817,434.5C 2816.5,496.499 2816.33,558.499 2816.5,620.5C 2816.17,620.5 2815.83,620.5 2815.5,620.5C 2815.33,557.166 2815.5,493.832 2816,430.5C 2818.7,427.964 2821.2,425.297 2823.5,422.5 Z"/></g>
<g><path style="opacity:0.999" fill="#f89393" d="M 3051.5,434.5 C 3049.17,430.847 3046.51,427.514 3043.5,424.5C 3043.08,422.248 3041.75,420.748 3039.5,420C 3036.5,419.333 3033.5,419.333 3030.5,420C 3029.62,420.708 3028.95,421.542 3028.5,422.5C 3027.76,422.369 3027.09,422.536 3026.5,423C 3024.95,425.287 3023.28,427.454 3021.5,429.5C 3020.04,432.203 3019.2,435.203 3019,438.5C 3018.5,498.832 3018.33,559.166 3018.5,619.5C 3017.83,619.5 3017.17,619.5 3016.5,619.5C 3016.33,557.832 3016.5,496.166 3017,434.5C 3019.18,428.756 3022.02,423.422 3025.5,418.5C 3028.58,418.252 3031.58,417.586 3034.5,416.5C 3041.62,417.135 3046.12,420.801 3048,427.5C 3050.74,429.067 3051.91,431.401 3051.5,434.5 Z"/></g>
<g><path style="opacity:0.998" fill="#f34b4b" d="M 2818.5,431.5 C 2818.5,432.5 2818.5,433.5 2818.5,434.5C 2817.17,496.264 2817.17,557.931 2818.5,619.5C 2818.16,620.338 2817.49,620.672 2816.5,620.5C 2816.33,558.499 2816.5,496.499 2817,434.5C 2817.23,433.263 2817.73,432.263 2818.5,431.5 Z"/></g>
<g><path style="opacity:0.999" fill="#f5a8a8" d="M 2850.5,445.5 C 2849.52,503.477 2849.18,561.477 2849.5,619.5C 2848.83,619.5 2848.17,619.5 2847.5,619.5C 2848.16,555.491 2847.5,491.825 2845.5,428.5C 2843.78,425.269 2841.45,422.436 2838.5,420C 2833.57,416.842 2828.57,416.676 2823.5,419.5C 2820.28,422.522 2817.44,425.855 2815,429.5C 2814.5,493.499 2814.33,557.499 2814.5,621.5C 2813.17,590.007 2812.5,558.174 2812.5,526C 2812.67,494.167 2812.83,462.333 2813,430.5C 2815.36,425.467 2818.53,420.967 2822.5,417C 2827.72,415.437 2833.05,415.104 2838.5,416C 2847.61,423.64 2851.61,433.473 2850.5,445.5 Z"/></g>
<g><path style="opacity:1" fill="#f56c6c" d="M 2845.5,428.5 C 2847.5,491.825 2848.16,555.491 2847.5,619.5C 2846.83,619.5 2846.17,619.5 2845.5,619.5C 2845.5,555.833 2845.5,492.167 2845.5,428.5 Z"/></g>
<g><path style="opacity:0.998" fill="#f22625" d="M 2821.5,619.5 C 2820.5,619.5 2819.5,619.5 2818.5,619.5C 2817.17,557.931 2817.17,496.264 2818.5,434.5C 2819.47,433.016 2820.81,432.516 2822.5,433C 2821.5,495.095 2821.17,557.262 2821.5,619.5 Z"/></g>
<g><path style="opacity:0.999" fill="#f23434" d="M 2844.5,619.5 C 2843.83,619.5 2843.17,619.5 2842.5,619.5C 2843.66,556.57 2843.83,493.57 2843,430.5C 2841.67,429.167 2840.33,429.167 2839,430.5C 2839.16,493.714 2838.32,556.714 2836.5,619.5C 2831.5,619.5 2826.5,619.5 2821.5,619.5C 2821.17,557.262 2821.5,495.095 2822.5,433C 2820.81,432.516 2819.47,433.016 2818.5,434.5C 2818.5,433.5 2818.5,432.5 2818.5,431.5C 2823.24,431.595 2825.4,429.262 2825,424.5C 2827.96,421.384 2831.46,420.717 2835.5,422.5C 2836.23,424.341 2836.9,426.175 2837.5,428C 2839.76,428.236 2841.93,428.736 2844,429.5C 2844.5,492.832 2844.67,556.166 2844.5,619.5 Z"/></g>
<g><path style="opacity:0.999" fill="#f22929" d="M 2842.5,619.5 C 2840.5,619.5 2838.5,619.5 2836.5,619.5C 2838.32,556.714 2839.16,493.714 2839,430.5C 2840.33,429.167 2841.67,429.167 2843,430.5C 2843.83,493.57 2843.66,556.57 2842.5,619.5 Z"/></g>
<g><path style="opacity:0.995" fill="#f66969" d="M 3021.5,429.5 C 3020.52,492.817 3020.19,556.151 3020.5,619.5C 3019.83,619.5 3019.17,619.5 3018.5,619.5C 3018.33,559.166 3018.5,498.832 3019,438.5C 3019.2,435.203 3020.04,432.203 3021.5,429.5 Z"/></g>
<g><path style="opacity:0.999" fill="#f45353" d="M 3028.5,422.5 C 3026.77,424.228 3025.44,426.228 3024.5,428.5C 3023.83,428.5 3023.5,428.833 3023.5,429.5C 3022.5,492.664 3022.17,555.998 3022.5,619.5C 3021.83,619.5 3021.17,619.5 3020.5,619.5C 3020.19,556.151 3020.52,492.817 3021.5,429.5C 3023.28,427.454 3024.95,425.287 3026.5,423C 3027.09,422.536 3027.76,422.369 3028.5,422.5 Z"/></g>
<g><path style="opacity:1" fill="#f44e4e" d="M 2845.5,428.5 C 2845.5,492.167 2845.5,555.833 2845.5,619.5C 2845.17,619.5 2844.83,619.5 2844.5,619.5C 2844.67,556.166 2844.5,492.832 2844,429.5C 2841.93,428.736 2839.76,428.236 2837.5,428C 2836.9,426.175 2836.23,424.341 2835.5,422.5C 2831.46,420.717 2827.96,421.384 2825,424.5C 2825.4,429.262 2823.24,431.595 2818.5,431.5C 2819.43,429.401 2820.93,427.734 2823,426.5C 2823.49,425.207 2823.66,423.873 2823.5,422.5C 2827.58,420.558 2831.91,420.058 2836.5,421C 2839.35,423.682 2842.35,426.182 2845.5,428.5 Z"/></g>
<g><path style="opacity:0.996" fill="#f33535" d="M 3178.5,508.5 C 3180.58,510.847 3182.58,513.18 3184.5,515.5C 3177.66,514.809 3176.16,517.143 3180,522.5C 3180.5,554.832 3180.67,587.165 3180.5,619.5C 3175.5,619.5 3170.5,619.5 3165.5,619.5C 3165.5,618.833 3165.17,618.5 3164.5,618.5C 3164.33,585.498 3164.5,552.498 3165,519.5C 3168.35,522.443 3170.52,521.609 3171.5,517C 3171.36,516.228 3171.02,515.561 3170.5,515C 3172.43,513.762 3174.43,513.262 3176.5,513.5C 3178.32,509.842 3177.16,508.175 3173,508.5C 3170.33,508.167 3168.33,509.167 3167,511.5C 3165.43,515.641 3163.1,519.308 3160,522.5C 3159.5,554.498 3159.33,586.498 3159.5,618.5C 3159.17,618.5 3158.83,618.5 3158.5,618.5C 3158.33,585.832 3158.5,553.165 3159,520.5C 3159.91,517.257 3161.91,514.923 3165,513.5C 3167.65,506.377 3172.15,504.71 3178.5,508.5 Z"/></g>
<g><path style="opacity:0.998" fill="#dd9190" d="M 2913.5,348.5 C 2913.5,438.833 2913.5,529.167 2913.5,619.5C 2913.17,619.5 2912.83,619.5 2912.5,619.5C 2912.67,529.833 2912.5,440.166 2912,350.5C 2911.81,348.292 2911.31,346.292 2910.5,344.5C 2908.87,339.536 2905.54,336.203 2900.5,334.5C 2900.5,334.167 2900.5,333.833 2900.5,333.5C 2897.36,332.359 2894.03,332.192 2890.5,333C 2886.49,336.446 2882.99,340.279 2880,344.5C 2879.83,436.237 2879.33,527.903 2878.5,619.5C 2877.17,575.172 2876.5,530.505 2876.5,485.5C 2876.36,437.812 2876.86,390.145 2878,342.5C 2880.45,338.385 2883.28,334.552 2886.5,331C 2896.91,326.247 2905.07,328.747 2911,338.5C 2912.76,341.608 2913.59,344.941 2913.5,348.5 Z"/></g>
<g><path style="opacity:1" fill="#f67c7c" d="M 2910.5,344.5 C 2911.31,346.292 2911.81,348.292 2912,350.5C 2912.5,440.166 2912.67,529.833 2912.5,619.5C 2911.83,619.5 2911.17,619.5 2910.5,619.5C 2910.5,527.833 2910.5,436.167 2910.5,344.5 Z"/></g>
<g><path style="opacity:0.999" fill="#f67070" d="M 2900.5,333.5 C 2897.48,333.335 2894.48,333.502 2891.5,334C 2888.71,337.105 2886.04,340.272 2883.5,343.5C 2882.21,344.058 2881.38,345.058 2881,346.5C 2880.5,437.499 2880.33,528.499 2880.5,619.5C 2879.83,619.5 2879.17,619.5 2878.5,619.5C 2879.33,527.903 2879.83,436.237 2880,344.5C 2882.99,340.279 2886.49,336.446 2890.5,333C 2894.03,332.192 2897.36,332.359 2900.5,333.5 Z"/></g>
<g><path style="opacity:0.999" fill="#f45252" d="M 2883.5,343.5 C 2883.5,344.167 2883.5,344.833 2883.5,345.5C 2882.71,346.609 2882.21,347.942 2882,349.5C 2881.5,439.499 2881.33,529.499 2881.5,619.5C 2881.17,619.5 2880.83,619.5 2880.5,619.5C 2880.33,528.499 2880.5,437.499 2881,346.5C 2881.38,345.058 2882.21,344.058 2883.5,343.5 Z"/></g>
<g><path style="opacity:0.999" fill="#f33b3b" d="M 2883.5,345.5 C 2882.51,436.815 2882.18,528.149 2882.5,619.5C 2882.17,619.5 2881.83,619.5 2881.5,619.5C 2881.33,529.499 2881.5,439.499 2882,349.5C 2882.21,347.942 2882.71,346.609 2883.5,345.5 Z"/></g>
<g><path style="opacity:0.999" fill="#f55a5a" d="M 2900.5,334.5 C 2905.54,336.203 2908.87,339.536 2910.5,344.5C 2910.5,436.167 2910.5,527.833 2910.5,619.5C 2910.17,619.5 2909.83,619.5 2909.5,619.5C 2909.67,527.499 2909.5,435.499 2909,343.5C 2906,340.6 2903.17,337.6 2900.5,334.5 Z"/></g>
<g><path style="opacity:0.999" fill="#f22424" d="M 2883.5,345.5 C 2884.5,345.5 2885.5,345.5 2886.5,345.5C 2886.5,436.833 2886.5,528.167 2886.5,619.5C 2885.17,619.5 2883.83,619.5 2882.5,619.5C 2882.18,528.149 2882.51,436.815 2883.5,345.5 Z"/></g>
<g><path style="opacity:0.998" fill="#f33534" d="M 2900.5,333.5 C 2900.5,333.833 2900.5,334.167 2900.5,334.5C 2903.17,337.6 2906,340.6 2909,343.5C 2909.5,435.499 2909.67,527.499 2909.5,619.5C 2908.5,619.5 2907.5,619.5 2906.5,619.5C 2907.5,527.571 2907.83,435.571 2907.5,343.5C 2906.17,343.5 2904.83,343.5 2903.5,343.5C 2903.17,435.571 2903.5,527.571 2904.5,619.5C 2898.5,619.5 2892.5,619.5 2886.5,619.5C 2886.5,528.167 2886.5,436.833 2886.5,345.5C 2885.5,345.5 2884.5,345.5 2883.5,345.5C 2883.5,344.833 2883.5,344.167 2883.5,343.5C 2886.04,340.272 2888.71,337.105 2891.5,334C 2894.48,333.502 2897.48,333.335 2900.5,333.5 Z"/></g>
<g><path style="opacity:0.999" fill="#f22727" d="M 2906.5,619.5 C 2905.83,619.5 2905.17,619.5 2904.5,619.5C 2903.5,527.571 2903.17,435.571 2903.5,343.5C 2904.83,343.5 2906.17,343.5 2907.5,343.5C 2907.83,435.571 2907.5,527.571 2906.5,619.5 Z"/></g>
<g><path style="opacity:0.995" fill="#f22a2a" d="M 3184.5,515.5 C 3185.5,549.663 3185.83,583.996 3185.5,618.5C 3184.83,618.5 3184.5,618.833 3184.5,619.5C 3183.17,619.5 3181.83,619.5 3180.5,619.5C 3180.67,587.165 3180.5,554.832 3180,522.5C 3176.16,517.143 3177.66,514.809 3184.5,515.5 Z"/></g>
<g><path style="opacity:0.996" fill="#f8b0b0" d="M 3191.5,518.5 C 3192.43,519.568 3192.77,520.901 3192.5,522.5C 3192.5,554.5 3192.5,586.5 3192.5,618.5C 3191.82,585.98 3191.15,553.313 3190.5,520.5C 3190.54,519.584 3190.88,518.917 3191.5,518.5 Z"/></g>
<g><path style="opacity:0.997" fill="#f28787" d="M 3191.5,516.5 C 3191.5,517.167 3191.5,517.833 3191.5,518.5C 3190.88,518.917 3190.54,519.584 3190.5,520.5C 3191.15,553.313 3191.82,585.98 3192.5,618.5C 3193.17,618.5 3193.5,618.833 3193.5,619.5C 3190.5,619.5 3187.5,619.5 3184.5,619.5C 3184.5,618.833 3184.83,618.5 3185.5,618.5C 3186.5,618.5 3187.5,618.5 3188.5,618.5C 3189.66,586.003 3189.83,553.336 3189,520.5C 3188.79,518.942 3188.29,517.609 3187.5,516.5C 3187.25,514.326 3186.25,512.659 3184.5,511.5C 3180.63,505.853 3175.29,504.02 3168.5,506C 3166.19,507.637 3164.69,509.804 3164,512.5C 3160.91,513.923 3158.91,516.257 3158,519.5C 3157.5,552.498 3157.33,585.498 3157.5,618.5C 3156.34,585.002 3156.17,551.336 3157,517.5C 3160.22,513.559 3163.05,509.393 3165.5,505C 3169.59,502.78 3173.93,502.113 3178.5,503C 3183.5,506.993 3187.34,511.826 3190,517.5C 3190.38,516.944 3190.88,516.611 3191.5,516.5 Z"/></g>
<g><path style="opacity:0.996" fill="#f56565" d="M 3184.5,511.5 C 3182.5,510.5 3180.5,509.5 3178.5,508.5C 3172.15,504.71 3167.65,506.377 3165,513.5C 3161.91,514.923 3159.91,517.257 3159,520.5C 3158.5,553.165 3158.33,585.832 3158.5,618.5C 3158.17,618.5 3157.83,618.5 3157.5,618.5C 3157.33,585.498 3157.5,552.498 3158,519.5C 3158.91,516.257 3160.91,513.923 3164,512.5C 3164.69,509.804 3166.19,507.637 3168.5,506C 3175.29,504.02 3180.63,505.853 3184.5,511.5 Z"/></g>
<g><path style="opacity:0.996" fill="#f67373" d="M 3187.5,516.5 C 3188.29,517.609 3188.79,518.942 3189,520.5C 3189.83,553.336 3189.66,586.003 3188.5,618.5C 3188.79,584.482 3188.46,550.482 3187.5,516.5 Z"/></g>
<g><path style="opacity:0.996" fill="#f22828" d="M 3164.5,618.5 C 3162.83,618.5 3161.17,618.5 3159.5,618.5C 3159.33,586.498 3159.5,554.498 3160,522.5C 3163.1,519.308 3165.43,515.641 3167,511.5C 3168.33,509.167 3170.33,508.167 3173,508.5C 3177.16,508.175 3178.32,509.842 3176.5,513.5C 3174.43,513.262 3172.43,513.762 3170.5,515C 3171.02,515.561 3171.36,516.228 3171.5,517C 3170.52,521.609 3168.35,522.443 3165,519.5C 3164.5,552.498 3164.33,585.498 3164.5,618.5 Z"/></g>
<g><path style="opacity:0.996" fill="#f44f4f" d="M 3178.5,508.5 C 3180.5,509.5 3182.5,510.5 3184.5,511.5C 3186.25,512.659 3187.25,514.326 3187.5,516.5C 3188.46,550.482 3188.79,584.482 3188.5,618.5C 3187.5,618.5 3186.5,618.5 3185.5,618.5C 3185.83,583.996 3185.5,549.663 3184.5,515.5C 3182.58,513.18 3180.58,510.847 3178.5,508.5 Z"/></g>
<g><path style="opacity:1" fill="#f77070" d="M 2953.5,254.5 C 2953.44,255.609 2953.11,256.609 2952.5,257.5C 2951.73,258.263 2951.23,259.263 2951,260.5C 2950.5,380.166 2950.33,499.833 2950.5,619.5C 2950.17,619.5 2949.83,619.5 2949.5,619.5C 2949.5,500.167 2949.5,380.833 2949.5,261.5C 2949.22,259.585 2949.55,257.919 2950.5,256.5C 2951.5,255.833 2952.5,255.167 2953.5,254.5 Z"/></g>
<g><path style="opacity:0.906" fill="#ecc1c1" d="M 3192.5,522.5 C 3193.12,522.611 3193.62,522.944 3194,523.5C 3194.83,555.669 3194.66,587.669 3193.5,619.5C 3193.5,618.833 3193.17,618.5 3192.5,618.5C 3192.5,586.5 3192.5,554.5 3192.5,522.5 Z"/></g>
<g><path style="opacity:1" fill="#c58787" d="M 3191.5,516.5 C 3190.88,516.611 3190.38,516.944 3190,517.5C 3187.34,511.826 3183.5,506.993 3178.5,503C 3173.93,502.113 3169.59,502.78 3165.5,505C 3163.05,509.393 3160.22,513.559 3157,517.5C 3156.17,551.336 3156.34,585.002 3157.5,618.5C 3157.83,618.5 3158.17,618.5 3158.5,618.5C 3158.83,618.5 3159.17,618.5 3159.5,618.5C 3161.17,618.5 3162.83,618.5 3164.5,618.5C 3165.17,618.5 3165.5,618.833 3165.5,619.5C 3161.83,619.5 3158.17,619.5 3154.5,619.5C 3154.33,585.498 3154.5,551.498 3155,517.5C 3157.73,512.107 3161.23,507.274 3165.5,503C 3171.24,500.895 3176.9,501.062 3182.5,503.5C 3184.17,505.833 3186.17,507.833 3188.5,509.5C 3189.31,511.945 3190.31,514.278 3191.5,516.5 Z"/></g>
<g><path style="opacity:0.631" fill="#a08686" d="M 101.5,562.5 C 428.333,561.5 755.333,561.167 1082.5,561.5C 1082.67,562.492 1082.34,563.158 1081.5,563.5C 755,562.5 428.334,562.167 101.5,562.5 Z"/></g>
<g><path style="opacity:1" fill="#fabcbb" d="M 101.5,562.5 C 428.334,562.167 755,562.5 1081.5,563.5C 1081.5,564.167 1081.17,564.5 1080.5,564.5C 752,564.833 423.666,564.5 95.5,563.5C 97.5,563.167 99.5,562.833 101.5,562.5 Z"/></g>
<g><path style="opacity:1" fill="#dcadad" d="M 1165.5,561.5 C 1694.83,561.333 2224.17,561.5 2753.5,562C 2763.47,563.125 2769.13,568.625 2770.5,578.5C 2767.49,574.164 2764.16,570.164 2760.5,566.5C 2758.34,564.78 2755.68,563.947 2752.5,564C 2222.83,563.5 1693.17,563.333 1163.5,563.5C 1163.5,562.167 1164.17,561.5 1165.5,561.5 Z"/></g>
<g><path style="opacity:1" fill="#e1a4a3" d="M 3304.5,608.5 C 3303.2,612.296 3300.53,614.463 3296.5,615C 3284.5,615.667 3272.5,615.667 3260.5,615C 3254.41,614.621 3249.41,612.121 3245.5,607.5C 3244.15,603.304 3242.15,599.471 3239.5,596C 3239.43,590.702 3239.6,585.202 3240,579.5C 3243.07,576.294 3245.4,572.627 3247,568.5C 3251.2,564.244 3256.37,562.078 3262.5,562C 3273.5,561.333 3284.5,561.333 3295.5,562C 3298.58,563.139 3301.58,564.472 3304.5,566C 3315.15,578.257 3316.82,591.59 3309.5,606C 3307.92,607.094 3306.26,607.928 3304.5,608.5 Z"/></g>
<g><path style="opacity:1" fill="#f9a1a1" d="M 1163.5,563.5 C 1693.17,563.333 2222.83,563.5 2752.5,564C 2755.68,563.947 2758.34,564.78 2760.5,566.5C 2759.83,566.5 2759.17,566.5 2758.5,566.5C 2226.67,565.5 1694.67,565.167 1162.5,565.5C 1162.33,564.508 1162.66,563.842 1163.5,563.5 Z"/></g>
<g><path style="opacity:1" fill="#f68181" d="M 1162.5,565.5 C 1694.67,565.167 2226.67,565.5 2758.5,566.5C 2226.1,566.167 1693.76,566.5 1161.5,567.5C 1161.33,566.508 1161.66,565.842 1162.5,565.5 Z"/></g>
<g><path style="opacity:1" fill="#f88888" d="M 3307.5,574.5 C 3305.08,572.589 3302.75,570.422 3300.5,568C 3299.5,567.667 3298.5,567.333 3297.5,567C 3284.5,566.333 3271.5,566.333 3258.5,567C 3257.26,567.232 3256.26,567.732 3255.5,568.5C 3252.74,568.744 3250.57,570.077 3249,572.5C 3242.45,580.925 3241.95,589.591 3247.5,598.5C 3247.45,600.903 3247.78,603.236 3248.5,605.5C 3246.91,604.652 3245.74,603.319 3245,601.5C 3243.38,596.762 3242.21,591.928 3241.5,587C 3241.66,579.845 3244.5,574.012 3250,569.5C 3250.48,568.552 3250.65,567.552 3250.5,566.5C 3267.48,564.115 3284.48,563.948 3301.5,566C 3303.88,568.652 3305.88,571.486 3307.5,574.5 Z"/></g>
<g><path style="opacity:1" fill="#f67070" d="M 1077.5,566.5 C 1077.03,567.906 1076.03,568.573 1074.5,568.5C 749.5,567.167 424.5,567.167 99.5,568.5C 97.0971,568.448 94.7638,568.781 92.5,569.5C 93.347,568.034 94.6803,567.2 96.5,567C 423.5,566.5 750.5,566.333 1077.5,566.5 Z"/></g>
<g><path style="opacity:1" fill="#f66b6b" d="M 2758.5,566.5 C 2759.17,566.5 2759.83,566.5 2760.5,566.5C 2764.16,570.164 2767.49,574.164 2770.5,578.5C 2770.67,584.176 2770.5,589.843 2770,595.5C 2769.8,597.382 2769.3,599.048 2768.5,600.5C 2767.83,600.833 2767.17,601.167 2766.5,601.5C 2766.5,600.5 2766.5,599.5 2766.5,598.5C 2766.5,597.5 2766.5,596.5 2766.5,595.5C 2769.18,585.844 2767.18,577.177 2760.5,569.5C 2227.33,568.5 1694,568.167 1160.5,568.5C 1160.5,567.833 1160.83,567.5 1161.5,567.5C 1693.76,566.5 2226.1,566.167 2758.5,566.5 Z"/></g>
<g><path style="opacity:1" fill="#f45e5e" d="M 99.5,568.5 C 424.5,567.167 749.5,567.167 1074.5,568.5C 1073.83,568.833 1073.17,569.167 1072.5,569.5C 748.334,568.5 424,568.167 99.5,568.5 Z"/></g>
<g><path style="opacity:1" fill="#f24949" d="M 99.5,568.5 C 424,568.167 748.334,568.5 1072.5,569.5C 1071.61,570.11 1070.61,570.443 1069.5,570.5C 745.5,569.167 421.5,569.167 97.5,570.5C 95.302,570.12 93.6354,570.787 92.5,572.5C 91.2719,573.306 90.2719,574.306 89.5,575.5C 89.0311,572.607 90.0311,570.607 92.5,569.5C 94.7638,568.781 97.0971,568.448 99.5,568.5 Z"/></g>
<g><path style="opacity:1" fill="#f24949" d="M 1160.5,568.5 C 1694,568.167 2227.33,568.5 2760.5,569.5C 2226.76,569.167 1693.1,569.5 1159.5,570.5C 1159.33,569.508 1159.66,568.842 1160.5,568.5 Z"/></g>
<g><path style="opacity:1" fill="#f45150" d="M 3255.5,568.5 C 3269.84,568.333 3284.17,568.5 3298.5,569C 3299.42,569.278 3300.08,569.778 3300.5,570.5C 3285.36,569.208 3270.36,569.208 3255.5,570.5C 3252.2,570.632 3250.54,572.298 3250.5,575.5C 3248.44,577.41 3246.94,579.743 3246,582.5C 3245.37,587.967 3245.87,593.301 3247.5,598.5C 3241.95,589.591 3242.45,580.925 3249,572.5C 3250.57,570.077 3252.74,568.744 3255.5,568.5 Z"/></g>
<g><path style="opacity:1" fill="#f23939" d="M 97.5,570.5 C 421.5,569.167 745.5,569.167 1069.5,570.5C 1067.56,571.15 1065.56,571.483 1063.5,571.5C 741.667,570.5 419.667,570.167 97.5,570.5 Z"/></g>
<g><path style="opacity:1" fill="#f12424" d="M 2759.5,576.5 C 2757.71,576.634 2756.04,576.301 2754.5,575.5C 2754.13,574.305 2753.3,573.639 2752,573.5C 2220.69,574.833 1689.53,574.833 1158.5,573.5C 1158.33,572.508 1158.66,571.842 1159.5,571.5C 1692.19,571.832 2224.85,571.499 2757.5,570.5C 2760.6,571.557 2761.27,573.557 2759.5,576.5 Z"/></g>
<g><path style="opacity:1" fill="#f23434" d="M 3300.5,570.5 C 3302.67,573.237 3305,575.903 3307.5,578.5C 3308.43,579.689 3308.76,581.022 3308.5,582.5C 3306.72,581.28 3304.72,580.614 3302.5,580.5C 3302.8,585.43 3302.47,590.263 3301.5,595C 3299.12,595.511 3296.79,596.178 3294.5,597C 3283.17,597.667 3271.83,597.667 3260.5,597C 3258.78,596.654 3257.12,596.154 3255.5,595.5C 3254.19,589.278 3254.19,583.111 3255.5,577C 3268.83,576.333 3282.17,576.333 3295.5,577C 3297.19,578.401 3297.86,580.234 3297.5,582.5C 3299.35,582.778 3300.68,582.111 3301.5,580.5C 3300.59,577.579 3300.26,574.579 3300.5,571.5C 3285.32,571.829 3270.32,571.496 3255.5,570.5C 3270.36,569.208 3285.36,569.208 3300.5,570.5 Z"/></g>
<g><path style="opacity:1" fill="#f12d2d" d="M 97.5,570.5 C 419.667,570.167 741.667,570.5 1063.5,571.5C 1054.83,571.5 1046.17,571.5 1037.5,571.5C 1037.74,572.791 1037.4,573.791 1036.5,574.5C 1036.5,574.833 1036.5,575.167 1036.5,575.5C 723.236,576.499 409.903,576.833 96.5,576.5C 96.7022,578.989 96.2022,581.323 95,583.5C 94.2825,584.451 93.4491,584.617 92.5,584C 91.859,580.257 91.859,576.423 92.5,572.5C 93.6354,570.787 95.302,570.12 97.5,570.5 Z"/></g>
<g><path style="opacity:1" fill="#f22424" d="M 1036.5,574.5 C 723.028,574.999 409.694,574.499 96.5,573C 409.694,571.501 723.028,571.001 1036.5,571.5C 1036.5,572.5 1036.5,573.5 1036.5,574.5 Z"/></g>
<g><path style="opacity:1" fill="#f12929" d="M 1158.5,573.5 C 1689.53,574.833 2220.69,574.833 2752,573.5C 2753.3,573.639 2754.13,574.305 2754.5,575.5C 2222.17,575.5 1689.83,575.5 1157.5,575.5C 1157.5,575.167 1157.5,574.833 1157.5,574.5C 1157.5,573.833 1157.83,573.5 1158.5,573.5 Z"/></g>
<g><path style="opacity:1" fill="#f23434" d="M 2760.5,569.5 C 2767.18,577.177 2769.18,585.844 2766.5,595.5C 2766.67,592.15 2766.5,588.817 2766,585.5C 2764.13,580.302 2762.79,580.635 2762,586.5C 2761.5,589.482 2761.34,592.482 2761.5,595.5C 2758.93,595.148 2756.59,595.648 2754.5,597C 2217.1,597.167 1679.76,597.667 1142.5,598.5C 1147.02,590.123 1152.02,582.123 1157.5,574.5C 1157.5,574.833 1157.5,575.167 1157.5,575.5C 1689.67,576.333 2222,576.833 2754.5,577C 2756.56,579.081 2758.22,578.914 2759.5,576.5C 2761.27,573.557 2760.6,571.557 2757.5,570.5C 2224.85,571.499 1692.19,571.832 1159.5,571.5C 1159.5,571.167 1159.5,570.833 1159.5,570.5C 1693.1,569.5 2226.76,569.167 2760.5,569.5 Z"/></g>
<g><path style="opacity:1" fill="#f22e2e" d="M 1157.5,575.5 C 1689.83,575.5 2222.17,575.5 2754.5,575.5C 2756.04,576.301 2757.71,576.634 2759.5,576.5C 2758.22,578.914 2756.56,579.081 2754.5,577C 2222,576.833 1689.67,576.333 1157.5,575.5 Z"/></g>
<g><path style="opacity:1" fill="#f23434" d="M 92.5,572.5 C 91.859,576.423 91.859,580.257 92.5,584C 93.4491,584.617 94.2825,584.451 95,583.5C 96.2022,581.323 96.7022,578.989 96.5,576.5C 409.903,576.833 723.236,576.499 1036.5,575.5C 1034.86,583.383 1032.86,591.049 1030.5,598.5C 720.334,597.667 410,597.167 99.5,597C 96.9865,595.748 94.3198,595.248 91.5,595.5C 91.3379,597.527 91.5045,599.527 92,601.5C 93.3561,602.38 94.8561,602.714 96.5,602.5C 95.4324,603.434 94.099,603.768 92.5,603.5C 91.5,602.833 90.5,602.167 89.5,601.5C 83.0576,594.706 81.8909,587.04 86,578.5C 86.7589,576.937 87.9256,575.937 89.5,575.5C 90.2719,574.306 91.2719,573.306 92.5,572.5 Z"/></g>
<g><path style="opacity:1" fill="#f44544" d="M 3043.5,424.5 C 3045.11,427.946 3046.94,431.279 3049,434.5C 3049.5,495.832 3049.67,557.166 3049.5,618.5C 3049.17,618.5 3048.83,618.5 3048.5,618.5C 3048.67,558.166 3048.5,497.832 3048,437.5C 3045.15,431.658 3041.65,426.158 3037.5,421C 3034.23,420.212 3031.23,420.712 3028.5,422.5C 3028.95,421.542 3029.62,420.708 3030.5,420C 3033.5,419.333 3036.5,419.333 3039.5,420C 3041.75,420.748 3043.08,422.248 3043.5,424.5 Z"/></g>
<g><path style="opacity:0.835" fill="#cc9c9c" d="M 2850.5,445.5 C 2851.14,446.097 2851.47,446.93 2851.5,448C 2850.84,505.317 2850.18,562.484 2849.5,619.5C 2849.18,561.477 2849.52,503.477 2850.5,445.5 Z"/></g>
<g><path style="opacity:1" fill="#f22d2d" d="M 3255.5,570.5 C 3270.32,571.496 3285.32,571.829 3300.5,571.5C 3300.26,574.579 3300.59,577.579 3301.5,580.5C 3300.68,582.111 3299.35,582.778 3297.5,582.5C 3297.86,580.234 3297.19,578.401 3295.5,577C 3282.17,576.333 3268.83,576.333 3255.5,577C 3254.19,583.111 3254.19,589.278 3255.5,595.5C 3257.12,596.154 3258.78,596.654 3260.5,597C 3271.83,597.667 3283.17,597.667 3294.5,597C 3296.79,596.178 3299.12,595.511 3301.5,595C 3302.47,590.263 3302.8,585.43 3302.5,580.5C 3304.72,580.614 3306.72,581.28 3308.5,582.5C 3308.66,589.062 3308,595.395 3306.5,601.5C 3303.25,601.901 3300.09,602.568 3297,603.5C 3281.68,602.778 3266.18,602.278 3250.5,602C 3250.36,593.212 3250.36,584.379 3250.5,575.5C 3250.54,572.298 3252.2,570.632 3255.5,570.5 Z"/></g>
<g><path style="opacity:1" fill="#f23131" d="M 1030.5,598.5 C 1030.37,600.216 1030.04,601.883 1029.5,603.5C 718.569,602.501 407.569,602.167 96.5,602.5C 94.8561,602.714 93.3561,602.38 92,601.5C 91.5045,599.527 91.3379,597.527 91.5,595.5C 94.3198,595.248 96.9865,595.748 99.5,597C 410,597.167 720.334,597.667 1030.5,598.5 Z"/></g>
<g><path style="opacity:1" fill="#f23131" d="M 2766.5,595.5 C 2766.5,596.5 2766.5,597.5 2766.5,598.5C 2763.89,600.161 2761.22,601.828 2758.5,603.5C 2218.69,602.835 1679.03,602.168 1139.5,601.5C 1140.17,600.167 1141.17,599.167 1142.5,598.5C 1679.76,597.667 2217.1,597.167 2754.5,597C 2756.59,595.648 2758.93,595.148 2761.5,595.5C 2761.34,592.482 2761.5,589.482 2762,586.5C 2762.79,580.635 2764.13,580.302 2766,585.5C 2766.5,588.817 2766.67,592.15 2766.5,595.5 Z"/></g>
<g><path style="opacity:1" fill="#e1a9a9" d="M 2770.5,578.5 C 2772.98,585.628 2773.15,592.962 2771,600.5C 2768.75,605.026 2765.58,608.693 2761.5,611.5C 2763.44,607.566 2765.77,603.899 2768.5,600.5C 2769.3,599.048 2769.8,597.382 2770,595.5C 2770.5,589.843 2770.67,584.176 2770.5,578.5 Z"/></g>
<g><path style="opacity:1" fill="#f33a3a" d="M 1139.5,601.5 C 1679.03,602.168 2218.69,602.835 2758.5,603.5C 2757.05,604.302 2755.38,604.802 2753.5,605C 2214.83,605.5 1676.17,605.667 1137.5,605.5C 1137.5,605.167 1137.5,604.833 1137.5,604.5C 1137.93,603.29 1138.6,602.29 1139.5,601.5 Z"/></g>
<g><path style="opacity:1" fill="#f3403f" d="M 3250.5,575.5 C 3250.36,584.379 3250.36,593.212 3250.5,602C 3266.18,602.278 3281.68,602.778 3297,603.5C 3300.09,602.568 3303.25,601.901 3306.5,601.5C 3303.44,603.044 3300.78,605.211 3298.5,608C 3285.5,608.5 3272.5,608.667 3259.5,608.5C 3256.04,606.973 3252.37,605.973 3248.5,605.5C 3247.78,603.236 3247.45,600.903 3247.5,598.5C 3245.87,593.301 3245.37,587.967 3246,582.5C 3246.94,579.743 3248.44,577.41 3250.5,575.5 Z"/></g>
<g><path style="opacity:1" fill="#f33d3d" d="M 96.5,602.5 C 407.569,602.167 718.569,602.501 1029.5,603.5C 1029.5,604.167 1029.5,604.833 1029.5,605.5C 1028.83,605.5 1028.5,605.833 1028.5,606.5C 718.46,606.832 408.46,606.499 98.5,605.5C 95.9179,605.975 93.9179,605.308 92.5,603.5C 94.099,603.768 95.4324,603.434 96.5,602.5 Z"/></g>
<g><path style="opacity:1" fill="#f44242" d="M 2766.5,598.5 C 2766.5,599.5 2766.5,600.5 2766.5,601.5C 2763.49,601.581 2761.49,602.914 2760.5,605.5C 2756.99,606.919 2753.32,607.586 2749.5,607.5C 2212.17,606.833 1674.83,606.167 1137.5,605.5C 1676.17,605.667 2214.83,605.5 2753.5,605C 2755.38,604.802 2757.05,604.302 2758.5,603.5C 2761.22,601.828 2763.89,600.161 2766.5,598.5 Z"/></g>
<g><path style="opacity:1" fill="#f34646" d="M 1137.5,604.5 C 1137.5,604.833 1137.5,605.167 1137.5,605.5C 1674.83,606.167 2212.17,606.833 2749.5,607.5C 2211.5,608.166 1673.83,607.5 1136.5,605.5C 1136.5,604.833 1136.83,604.5 1137.5,604.5 Z"/></g>
<g><path style="opacity:1" fill="#f44f4f" d="M 89.5,601.5 C 90.5,602.167 91.5,602.833 92.5,603.5C 93.9179,605.308 95.9179,605.975 98.5,605.5C 253.165,606.833 408.165,607.5 563.5,607.5C 718.667,607.5 873.667,607.167 1028.5,606.5C 1028.5,605.833 1028.83,605.5 1029.5,605.5C 1029.74,606.791 1029.4,607.791 1028.5,608.5C 718.5,608.5 408.5,608.5 98.5,608.5C 92.8941,609.564 89.8941,607.231 89.5,601.5 Z"/></g>
<g><path style="opacity:1" fill="#f44747" d="M 98.5,605.5 C 408.46,606.499 718.46,606.832 1028.5,606.5C 873.667,607.167 718.667,607.5 563.5,607.5C 408.165,607.5 253.165,606.833 98.5,605.5 Z"/></g>
<g><path style="opacity:1" fill="#f44f4f" d="M 1136.5,605.5 C 1673.83,607.5 2211.5,608.166 2749.5,607.5C 2753.32,607.586 2756.99,606.919 2760.5,605.5C 2759.83,606.833 2758.83,607.833 2757.5,608.5C 2216.67,608.833 1676,608.5 1135.5,607.5C 1135.33,606.508 1135.66,605.842 1136.5,605.5 Z"/></g>
<g><path style="opacity:1" fill="#f56464" d="M 1135.5,607.5 C 1676,608.5 2216.67,608.833 2757.5,608.5C 2216.17,610.5 1674.5,611.166 1132.5,610.5C 1133.17,609.167 1134.17,608.167 1135.5,607.5 Z"/></g>
<g><path style="opacity:1" fill="#f56969" d="M 98.5,608.5 C 408.5,608.5 718.5,608.5 1028.5,608.5C 1028.67,609.492 1028.34,610.158 1027.5,610.5C 718.166,610.667 408.833,610.5 99.5,610C 98.944,609.617 98.6107,609.117 98.5,608.5 Z"/></g>
<g><path style="opacity:1" fill="#f66969" d="M 3307.5,574.5 C 3308.07,576.255 3308.91,577.922 3310,579.5C 3310.5,585.825 3310.67,592.158 3310.5,598.5C 3309.4,599.848 3308.4,601.348 3307.5,603C 3303.88,604.631 3300.88,606.965 3298.5,610C 3286.17,610.667 3273.83,610.667 3261.5,610C 3260.58,609.722 3259.92,609.222 3259.5,608.5C 3272.5,608.667 3285.5,608.5 3298.5,608C 3300.78,605.211 3303.44,603.044 3306.5,601.5C 3308,595.395 3308.66,589.062 3308.5,582.5C 3308.76,581.022 3308.43,579.689 3307.5,578.5C 3305,575.903 3302.67,573.237 3300.5,570.5C 3300.08,569.778 3299.42,569.278 3298.5,569C 3284.17,568.5 3269.84,568.333 3255.5,568.5C 3256.26,567.732 3257.26,567.232 3258.5,567C 3271.5,566.333 3284.5,566.333 3297.5,567C 3298.5,567.333 3299.5,567.667 3300.5,568C 3302.75,570.422 3305.08,572.589 3307.5,574.5 Z"/></g>
<g><path style="opacity:1" fill="#f78282" d="M 1078.5,565.5 C 1078.5,566.167 1078.17,566.5 1077.5,566.5C 750.5,566.333 423.5,566.5 96.5,567C 94.6803,567.2 93.347,568.034 92.5,569.5C 90.0311,570.607 89.0311,572.607 89.5,575.5C 87.9256,575.937 86.7589,576.937 86,578.5C 81.8909,587.04 83.0576,594.706 89.5,601.5C 89.8941,607.231 92.8941,609.564 98.5,608.5C 98.6107,609.117 98.944,609.617 99.5,610C 408.833,610.5 718.166,610.667 1027.5,610.5C 1027.5,610.833 1027.5,611.167 1027.5,611.5C 716.166,611.667 404.833,611.5 93.5,611C 88.1581,606.354 84.6581,600.52 83,593.5C 82.3333,588.5 82.3333,583.5 83,578.5C 84.7711,574.627 87.2711,571.293 90.5,568.5C 91.9122,567.194 93.5789,566.36 95.5,566C 423.166,565.5 750.833,565.333 1078.5,565.5 Z"/></g>
<g><path style="opacity:1" fill="#f68282" d="M 2768.5,600.5 C 2765.77,603.899 2763.44,607.566 2761.5,611.5C 2760.17,611.5 2758.83,611.5 2757.5,611.5C 2215.5,611.5 1673.5,611.5 1131.5,611.5C 1131.5,610.833 1131.83,610.5 1132.5,610.5C 1674.5,611.166 2216.17,610.5 2757.5,608.5C 2758.83,607.833 2759.83,606.833 2760.5,605.5C 2761.49,602.914 2763.49,601.581 2766.5,601.5C 2767.17,601.167 2767.83,600.833 2768.5,600.5 Z"/></g>
<g><path style="opacity:1" fill="#f78484" d="M 3310.5,598.5 C 3310.57,602.72 3308.57,605.054 3304.5,605.5C 3304.5,606.5 3304.5,607.5 3304.5,608.5C 3303.03,609.072 3301.69,609.905 3300.5,611C 3286.17,611.667 3271.83,611.667 3257.5,611C 3254.62,610.562 3251.96,609.562 3249.5,608C 3248.75,607.329 3248.41,606.496 3248.5,605.5C 3252.37,605.973 3256.04,606.973 3259.5,608.5C 3259.92,609.222 3260.58,609.722 3261.5,610C 3273.83,610.667 3286.17,610.667 3298.5,610C 3300.88,606.965 3303.88,604.631 3307.5,603C 3308.4,601.348 3309.4,599.848 3310.5,598.5 Z"/></g>
<g><path style="opacity:1" fill="#f9a9a9" d="M 95.5,563.5 C 423.666,564.5 752,564.833 1080.5,564.5C 1080.16,565.338 1079.49,565.672 1078.5,565.5C 750.833,565.333 423.166,565.5 95.5,566C 93.5789,566.36 91.9122,567.194 90.5,568.5C 87.2711,571.293 84.7711,574.627 83,578.5C 82.3333,583.5 82.3333,588.5 83,593.5C 84.6581,600.52 88.1581,606.354 93.5,611C 404.833,611.5 716.166,611.667 1027.5,611.5C 1027.5,612.5 1027.5,613.5 1027.5,614.5C 718.167,614.5 408.833,614.5 99.5,614.5C 96.6802,614.752 94.0135,614.252 91.5,613C 88.4527,609.075 85.286,605.241 82,601.5C 80.0382,592.825 80.0382,584.158 82,575.5C 84.6205,572.424 87.1205,569.258 89.5,566C 91.4068,564.878 93.4068,564.045 95.5,563.5 Z"/></g>
<g><path style="opacity:1" fill="#faa7a7" d="M 1131.5,611.5 C 1673.5,611.5 2215.5,611.5 2757.5,611.5C 2757.61,612.117 2757.94,612.617 2758.5,613C 2215.5,613.5 1672.5,613.667 1129.5,613.5C 1129.83,612.5 1130.5,611.833 1131.5,611.5 Z"/></g>
<g><path style="opacity:1" fill="#fbc0c0" d="M 2757.5,611.5 C 2758.83,611.5 2760.17,611.5 2761.5,611.5C 2760.31,613.975 2758.31,614.975 2755.5,614.5C 2213.33,614.833 1671.33,614.5 1129.5,613.5C 1672.5,613.667 2215.5,613.5 2758.5,613C 2757.94,612.617 2757.61,612.117 2757.5,611.5 Z"/></g>
<g><path style="opacity:0.333" fill="#564545" d="M 1129.5,613.5 C 1671.33,614.5 2213.33,614.833 2755.5,614.5C 2213.33,615.5 1671,615.833 1128.5,615.5C 1128.33,614.508 1128.66,613.842 1129.5,613.5 Z"/></g>
<g><path style="opacity:0.755" fill="#000000" d="M 2322.5,636.5 C 2325.86,635.789 2328.2,636.956 2329.5,640C 2329.41,642.13 2329.41,644.297 2329.5,646.5C 2327.94,651.604 2324.78,653.271 2320,651.5C 2317.64,645.792 2318.48,640.792 2322.5,636.5 Z"/></g>
<g><path style="opacity:0.783" fill="#000000" d="M 2423.5,636.5 C 2428.69,635.842 2431.02,638.175 2430.5,643.5C 2430.73,648.06 2428.73,651.06 2424.5,652.5C 2420.99,651.331 2419.32,648.831 2419.5,645C 2419.64,641.564 2420.97,638.731 2423.5,636.5 Z"/></g>
<g><path style="opacity:0.762" fill="#000000" d="M 2625.5,636.5 C 2629.87,636.372 2632.21,638.538 2632.5,643C 2632.07,645.634 2631.23,648.134 2630,650.5C 2624.35,654.061 2621.18,652.394 2620.5,645.5C 2620.92,641.76 2622.59,638.76 2625.5,636.5 Z"/></g>
<g><path style="opacity:0.775" fill="#000000" d="M 2840.5,636.5 C 2845.69,635.842 2848.02,638.175 2847.5,643.5C 2847.73,648.06 2845.73,651.06 2841.5,652.5C 2837.9,651.564 2836.23,649.23 2836.5,645.5C 2836.49,641.861 2837.82,638.861 2840.5,636.5 Z"/></g>
<g><path style="opacity:0.791" fill="#000000" d="M 2931.5,636.5 C 2936.58,635.745 2938.91,637.912 2938.5,643C 2938.86,647.797 2936.86,650.963 2932.5,652.5C 2930.97,652.471 2929.8,651.804 2929,650.5C 2927.72,645.295 2928.55,640.628 2931.5,636.5 Z"/></g>
<g><path style="opacity:0.777" fill="#000000" d="M 2980.5,636.5 C 2985.83,635.826 2988.16,638.159 2987.5,643.5C 2987.9,648.102 2985.9,651.102 2981.5,652.5C 2978.29,651.601 2976.62,649.434 2976.5,646C 2976.97,642.417 2978.3,639.25 2980.5,636.5 Z"/></g>
<g><path style="opacity:0.783" fill="#000000" d="M 3146.5,638.5 C 3150.64,638.299 3152.97,640.299 3153.5,644.5C 3152.97,648.595 3150.8,651.262 3147,652.5C 3144.07,651.391 3142.91,649.224 3143.5,646C 3143.11,642.876 3144.11,640.376 3146.5,638.5 Z"/></g>
<g><path style="opacity:0.797" fill="#000000" d="M 3158.5,638.5 C 3163.33,637.964 3165.33,640.13 3164.5,645C 3165.01,648.986 3163.34,651.486 3159.5,652.5C 3156.22,651.872 3154.88,649.872 3155.5,646.5C 3155.4,643.376 3156.4,640.71 3158.5,638.5 Z"/></g>
<g><path style="opacity:0.787" fill="#000000" d="M 2197.5,639.5 C 2199.83,639.5 2202.17,639.5 2204.5,639.5C 2201.96,648.911 2199.13,658.244 2196,667.5C 2192.54,668.791 2189.04,668.791 2185.5,667.5C 2189.3,658.101 2193.3,648.768 2197.5,639.5 Z"/></g>
<g><path style="opacity:0.788" fill="#000000" d="M 2210.5,639.5 C 2213.27,640.371 2215.94,640.371 2218.5,639.5C 2215.34,649.127 2212.34,658.793 2209.5,668.5C 2206.1,668.82 2202.77,668.487 2199.5,667.5C 2203.13,658.185 2206.8,648.852 2210.5,639.5 Z"/></g>
<g><path style="opacity:0.862" fill="#000000" d="M 2225.5,639.5 C 2236.05,639.695 2246.38,639.695 2256.5,639.5C 2256.81,643.675 2256.15,647.675 2254.5,651.5C 2247.52,652.331 2240.52,652.831 2233.5,653C 2231.23,658.152 2229.56,663.485 2228.5,669C 2235.16,669.5 2241.83,669.666 2248.5,669.5C 2247.6,673.375 2246.6,677.208 2245.5,681C 2238.84,681.5 2232.17,681.666 2225.5,681.5C 2223.26,687.554 2221.92,693.554 2221.5,699.5C 2228.53,699.17 2235.53,699.503 2242.5,700.5C 2241.58,703.684 2240.58,706.851 2239.5,710C 2238.9,711.301 2237.9,712.135 2236.5,712.5C 2227.48,712.144 2218.64,712.144 2210,712.5C 2208.72,712.387 2207.89,711.72 2207.5,710.5C 2214.04,686.654 2220.04,662.987 2225.5,639.5 Z"/></g>
<g><path style="opacity:0.846" fill="#000000" d="M 2285.5,639.5 C 2288.34,639.729 2291.34,639.896 2294.5,640C 2295.02,640.561 2295.36,641.228 2295.5,642C 2292.35,652.418 2289.85,662.918 2288,673.5C 2292.72,669.28 2296.89,664.613 2300.5,659.5C 2304.5,658.167 2308.5,658.167 2312.5,659.5C 2306.43,666.651 2300.59,673.984 2295,681.5C 2295.42,689.276 2296.75,696.943 2299,704.5C 2299.67,707.167 2299.67,709.833 2299,712.5C 2296.3,712.701 2293.47,712.368 2290.5,711.5C 2288.13,704.904 2286.3,698.237 2285,691.5C 2283.67,692.167 2282.67,693.167 2282,694.5C 2280.5,700.179 2279,705.846 2277.5,711.5C 2274.97,712.213 2272.31,712.546 2269.5,712.5C 2268.5,712.167 2267.83,711.5 2267.5,710.5C 2273.82,686.914 2279.82,663.247 2285.5,639.5 Z"/></g>
<g><path style="opacity:0.835" fill="#000000" d="M 2336.5,639.5 C 2339.58,640.696 2342.41,640.696 2345,639.5C 2344.65,645.561 2343.65,651.561 2342,657.5C 2337.33,675.492 2332.67,693.492 2328,711.5C 2325.11,711.587 2322.27,711.92 2319.5,712.5C 2318.65,709.19 2318.82,705.856 2320,702.5C 2325.41,681.444 2330.91,660.444 2336.5,639.5 Z"/></g>
<g><path style="opacity:0.859" fill="#000000" d="M 2516.5,639.5 C 2519.35,639.782 2522.01,639.782 2524.5,639.5C 2524.83,640.167 2525.17,640.833 2525.5,641.5C 2520.05,665.362 2513.88,689.029 2507,712.5C 2504.33,711.167 2501.67,711.167 2499,712.5C 2498.67,711.167 2498.33,709.833 2498,708.5C 2497.5,710.333 2496.33,711.5 2494.5,712C 2491.17,712.667 2487.83,712.667 2484.5,712C 2482.04,709.592 2480.21,706.759 2479,703.5C 2477.33,688.858 2480.66,675.525 2489,663.5C 2496.07,655.66 2502.91,655.66 2509.5,663.5C 2511.94,655.21 2514.28,647.21 2516.5,639.5 Z M 2498.5,669.5 C 2501.44,669.918 2503.77,671.418 2505.5,674C 2504.41,677.424 2504.41,680.757 2505.5,684C 2503.3,689.442 2500.64,694.608 2497.5,699.5C 2493.58,701.421 2490.75,700.421 2489,696.5C 2488.55,689.971 2489.55,683.637 2492,677.5C 2493.65,674.354 2495.82,671.688 2498.5,669.5 Z"/></g>
<g><path style="opacity:0.863" fill="#000000" d="M 2583.5,639.5 C 2586.16,639.899 2588.66,639.899 2591,639.5C 2592.5,639.667 2593.33,640.5 2593.5,642C 2591.3,648.093 2589.8,654.26 2589,660.5C 2596.97,655.301 2602.97,656.967 2607,665.5C 2607.4,672.34 2607.57,679.007 2607.5,685.5C 2605.56,695.548 2600.89,704.048 2593.5,711C 2586.61,714.102 2581.11,712.602 2577,706.5C 2576.19,708.436 2575.69,710.436 2575.5,712.5C 2572.65,712.218 2569.99,712.218 2567.5,712.5C 2566.5,712.167 2565.83,711.5 2565.5,710.5C 2572.01,686.94 2578.01,663.273 2583.5,639.5 Z M 2590.5,669.5 C 2593.32,669.081 2595.49,670.081 2597,672.5C 2599.12,682.459 2596.95,691.292 2590.5,699C 2586.65,701.497 2583.82,700.663 2582,696.5C 2580.98,686.23 2583.81,677.23 2590.5,669.5 Z"/></g>
<g><path style="opacity:0.83" fill="#000000" d="M 2804.5,639.5 C 2807.35,639.782 2810.01,639.782 2812.5,639.5C 2812.83,640 2813.17,640.5 2813.5,641C 2808.15,665.048 2801.98,688.881 2795,712.5C 2792.33,711.167 2789.67,711.167 2787,712.5C 2786.33,710.5 2786.33,708.5 2787,706.5C 2788.67,698.828 2790.83,691.328 2793.5,684C 2793.04,683.586 2792.71,683.086 2792.5,682.5C 2796.66,668.173 2800.66,653.84 2804.5,639.5 Z"/></g>
<g><path style="opacity:0.836" fill="#000000" d="M 2854.5,639.5 C 2857.5,639.5 2860.5,639.5 2863.5,639.5C 2860.37,655.591 2856.37,671.758 2851.5,688C 2851.83,688.333 2852.17,688.667 2852.5,689C 2849.84,696.818 2847.34,704.652 2845,712.5C 2842.63,711.89 2840.13,711.723 2837.5,712C 2836.92,711.107 2836.59,710.107 2836.5,709C 2842.44,685.775 2848.44,662.608 2854.5,639.5 Z"/></g>
<g><path style="opacity:0.86" fill="#000000" d="M 3073.5,639.5 C 3076.65,640.095 3079.65,640.095 3082.5,639.5C 3076.99,663.579 3071.15,687.579 3065,711.5C 3064.11,712.081 3063.11,712.415 3062,712.5C 3060.33,711.834 3058.83,711.834 3057.5,712.5C 3056.2,711.91 3055.37,710.91 3055,709.5C 3049.67,713.5 3044.33,713.5 3039,709.5C 3034.52,700.081 3034.35,690.581 3038.5,681C 3039.47,672.876 3043.14,665.876 3049.5,660C 3056.98,655.6 3062.81,657.1 3067,664.5C 3069.24,656.147 3071.4,647.813 3073.5,639.5 Z M 3055.5,669.5 C 3059.4,669.56 3061.56,671.56 3062,675.5C 3062.73,683.062 3061.06,690.062 3057,696.5C 3050.59,702.77 3046.75,701.436 3045.5,692.5C 3045.89,683.396 3049.23,675.729 3055.5,669.5 Z"/></g>
<g><path style="opacity:0.836" fill="#000000" d="M 3248.5,639.5 C 3251.52,639.335 3254.52,639.502 3257.5,640C 3257.96,640.414 3258.29,640.914 3258.5,641.5C 3252.25,665.5 3245.92,689.167 3239.5,712.5C 3237.36,712.362 3235.2,712.362 3233,712.5C 3231.5,712.333 3230.67,711.5 3230.5,710C 3237.13,686.391 3243.13,662.891 3248.5,639.5 Z"/></g>
<g><path style="opacity:0.78" fill="#000000" d="M 3286.5,639.5 C 3289.27,640.235 3291.94,640.401 3294.5,640C 3295.52,641.049 3295.68,642.216 3295,643.5C 3291.28,651.338 3287.94,659.338 3285,667.5C 3282.28,668.444 3279.45,668.777 3276.5,668.5C 3279.03,658.569 3282.37,648.902 3286.5,639.5 Z"/></g>
<g><path style="opacity:0.801" fill="#000000" d="M 3299.5,639.5 C 3302.31,640.459 3305.31,640.459 3308.5,639.5C 3308.66,641.199 3308.49,642.866 3308,644.5C 3304.13,652.292 3300.96,660.292 3298.5,668.5C 3295.28,668.892 3292.28,668.392 3289.5,667C 3293.53,658.071 3296.86,648.905 3299.5,639.5 Z"/></g>
<g><path style="opacity:0.859" fill="#000000" d="M 2263.5,646.5 C 2266.5,646.5 2269.5,646.5 2272.5,646.5C 2272.36,650.889 2271.36,655.056 2269.5,659C 2271.81,659.497 2274.14,659.663 2276.5,659.5C 2275.99,663.197 2275.33,666.864 2274.5,670.5C 2271.83,670.5 2269.17,670.5 2266.5,670.5C 2264.71,679.118 2262.71,687.952 2260.5,697C 2260.73,700.261 2262.23,701.428 2265,700.5C 2265.69,701.025 2266.19,701.692 2266.5,702.5C 2265.73,705.51 2264.9,708.51 2264,711.5C 2257.14,714.055 2252.31,712.055 2249.5,705.5C 2249.62,703.378 2249.62,701.211 2249.5,699C 2252.42,689.654 2254.75,680.154 2256.5,670.5C 2255.17,670.5 2253.83,670.5 2252.5,670.5C 2253,667.513 2253.5,664.513 2254,661.5C 2255.69,659.955 2257.69,658.955 2260,658.5C 2261.07,654.453 2262.24,650.453 2263.5,646.5 Z"/></g>
<g><path style="opacity:0.865" fill="#000000" d="M 2906.5,646.5 C 2909.83,646.5 2913.17,646.5 2916.5,646.5C 2915.73,650.743 2914.73,654.909 2913.5,659C 2915.81,659.497 2918.14,659.663 2920.5,659.5C 2919.42,663.085 2918.75,666.751 2918.5,670.5C 2916.14,670.337 2913.81,670.503 2911.5,671C 2908.57,679.461 2906.24,688.128 2904.5,697C 2904.09,700.944 2905.59,702.11 2909,700.5C 2909.5,701 2910,701.5 2910.5,702C 2909.24,705.058 2908.24,708.225 2907.5,711.5C 2898.59,714.903 2893.92,711.903 2893.5,702.5C 2895.42,691.743 2897.75,681.077 2900.5,670.5C 2898.57,670.769 2896.9,670.269 2895.5,669C 2897,665.995 2898,662.829 2898.5,659.5C 2900.29,659.785 2901.95,659.452 2903.5,658.5C 2904.93,654.597 2905.93,650.597 2906.5,646.5 Z"/></g>
<g><path style="opacity:0.864" fill="#000000" d="M 2356.5,657.5 C 2362.9,656.053 2367.73,658.053 2371,663.5C 2373.9,671.031 2374.23,678.698 2372,686.5C 2371.33,687.833 2370.33,688.833 2369,689.5C 2362.24,689.306 2355.4,689.306 2348.5,689.5C 2347.44,692.845 2347.61,696.178 2349,699.5C 2354.57,702.52 2358.4,700.853 2360.5,694.5C 2363.43,693.516 2366.43,693.183 2369.5,693.5C 2368.57,705.022 2362.41,711.688 2351,713.5C 2340.74,711.185 2336.57,704.685 2338.5,694C 2338.1,683.203 2340.93,673.37 2347,664.5C 2349.53,661.115 2352.7,658.782 2356.5,657.5 Z M 2355.5,669.5 C 2357.83,669.5 2360.17,669.5 2362.5,669.5C 2363.21,672.786 2363.54,676.119 2363.5,679.5C 2359.12,679.826 2354.78,679.492 2350.5,678.5C 2351.75,675.144 2353.41,672.144 2355.5,669.5 Z"/></g>
<g><path style="opacity:0.854" fill="#000000" d="M 2390.5,657.5 C 2403.64,656.309 2409.31,662.309 2407.5,675.5C 2404.5,675.5 2401.5,675.5 2398.5,675.5C 2397.73,668.197 2394.57,666.864 2389,671.5C 2388.26,673.441 2388.42,675.274 2389.5,677C 2393.59,679.127 2397.42,681.627 2401,684.5C 2405.68,698.225 2401.51,707.891 2388.5,713.5C 2388.17,714.167 2387.83,714.833 2387.5,715.5C 2392.95,722.053 2392.28,728.22 2385.5,734C 2376.86,737.879 2373.53,735.379 2375.5,726.5C 2378.17,726.5 2380.83,726.5 2383.5,726.5C 2383.25,723.53 2381.59,722.197 2378.5,722.5C 2378.69,719.399 2379.36,716.399 2380.5,713.5C 2373.75,708.984 2371.08,702.651 2372.5,694.5C 2375.52,694.335 2378.52,694.502 2381.5,695C 2381.65,697.61 2382.99,699.943 2385.5,702C 2391.31,702.171 2393.48,699.338 2392,693.5C 2379.37,688.134 2375.71,679.134 2381,666.5C 2383.41,662.592 2386.57,659.592 2390.5,657.5 Z"/></g>
<g><path style="opacity:0.853" fill="#000000" d="M 2445.5,657.5 C 2451.99,655.845 2456.16,658.178 2458,664.5C 2461.57,658.636 2466.73,656.47 2473.5,658C 2474.67,659.167 2475.83,660.333 2477,661.5C 2478.39,666.399 2478.89,671.233 2478.5,676C 2475.55,687.858 2472.38,699.692 2469,711.5C 2466.68,712.304 2464.18,712.638 2461.5,712.5C 2460.12,712 2459.45,711 2459.5,709.5C 2462.59,698.159 2465.59,686.492 2468.5,674.5C 2466.69,668.946 2463.85,668.279 2460,672.5C 2459.33,673.833 2458.67,675.167 2458,676.5C 2454.98,688.6 2451.64,700.6 2448,712.5C 2445.44,712.659 2442.77,712.325 2440,711.5C 2439.88,707.678 2440.71,704.011 2442.5,700.5C 2442.29,699.914 2441.96,699.414 2441.5,699C 2444.36,691.181 2446.7,683.181 2448.5,675C 2446.94,669.03 2444.1,668.197 2440,672.5C 2439.33,673.833 2438.67,675.167 2438,676.5C 2434.97,688.607 2431.64,700.607 2428,712.5C 2425.7,712.421 2423.2,712.254 2420.5,712C 2419.42,710.274 2419.26,708.441 2420,706.5C 2423.57,691.062 2427.57,675.728 2432,660.5C 2433.35,659.296 2435.02,658.629 2437,658.5C 2440.41,661.002 2443.25,660.669 2445.5,657.5 Z"/></g>
<g><path style="opacity:0.866" fill="#000000" d="M 2535.5,657.5 C 2545.85,655.911 2551.68,660.244 2553,670.5C 2553.83,676.988 2553.17,683.321 2551,689.5C 2543.55,688.543 2536.05,688.377 2528.5,689C 2526.8,693.406 2527.47,697.406 2530.5,701C 2535.44,701.593 2538.78,699.426 2540.5,694.5C 2543.43,693.516 2546.43,693.183 2549.5,693.5C 2548.1,704.296 2542.1,710.963 2531.5,713.5C 2524.8,713.3 2520.64,709.967 2519,703.5C 2516.45,689.364 2519.12,676.364 2527,664.5C 2529.46,661.519 2532.3,659.186 2535.5,657.5 Z M 2538.5,668.5 C 2542.84,670.549 2544.51,673.882 2543.5,678.5C 2539.22,679.492 2534.88,679.826 2530.5,679.5C 2531.49,674.479 2534.16,670.812 2538.5,668.5 Z"/></g>
<g><path style="opacity:0.84" fill="#000000" d="M 2647.5,657.5 C 2649.53,657.338 2651.53,657.505 2653.5,658C 2654.52,658.519 2655.18,659.353 2655.5,660.5C 2654.36,663.755 2653.53,667.089 2653,670.5C 2651.3,672.421 2649.3,672.421 2647,670.5C 2644.5,671.083 2642.5,672.416 2641,674.5C 2639.47,677.417 2638.14,680.417 2637,683.5C 2634.89,692.342 2632.72,701.176 2630.5,710C 2629.39,711.861 2627.72,712.695 2625.5,712.5C 2623.8,711.932 2622.3,711.932 2621,712.5C 2620.83,711.667 2620.67,710.833 2620.5,710C 2625.31,692.95 2629.65,675.784 2633.5,658.5C 2637.24,658.241 2640.91,658.574 2644.5,659.5C 2645.74,659.058 2646.74,658.391 2647.5,657.5 Z"/></g>
<g><path style="opacity:0.866" fill="#000000" d="M 2667.5,657.5 C 2677.8,655.896 2683.64,660.229 2685,670.5C 2685.72,676.965 2685.05,683.298 2683,689.5C 2676,689.167 2669,688.833 2662,688.5C 2660.53,689.381 2659.7,690.714 2659.5,692.5C 2660.07,694.204 2660.07,695.704 2659.5,697C 2661.84,701.835 2665.17,702.668 2669.5,699.5C 2670.75,697.999 2671.75,696.332 2672.5,694.5C 2675.43,693.516 2678.43,693.183 2681.5,693.5C 2680.54,704.766 2674.54,711.432 2663.5,713.5C 2658.01,713.834 2654.18,711.501 2652,706.5C 2648.25,691.401 2650.58,677.401 2659,664.5C 2661.44,661.546 2664.27,659.213 2667.5,657.5 Z M 2671.5,668.5 C 2675.15,671.141 2676.49,674.808 2675.5,679.5C 2671.12,679.826 2666.78,679.492 2662.5,678.5C 2663.71,673.319 2666.71,669.986 2671.5,668.5 Z"/></g>
<g><path style="opacity:0.864" fill="#000000" d="M 2736.5,657.5 C 2749.36,656.511 2755.03,662.511 2753.5,675.5C 2750.5,675.5 2747.5,675.5 2744.5,675.5C 2744.28,668.98 2741.45,667.313 2736,670.5C 2733.85,673.216 2734.02,675.716 2736.5,678C 2750.09,683.331 2753.25,692.498 2746,705.5C 2740.63,712.219 2733.79,714.386 2725.5,712C 2719.94,707.497 2717.61,701.663 2718.5,694.5C 2721.83,694.5 2725.17,694.5 2728.5,694.5C 2728.27,700.802 2730.94,702.969 2736.5,701C 2739.68,698.521 2740.02,695.854 2737.5,693C 2724.37,686.948 2721.2,677.448 2728,664.5C 2729.53,663.271 2730.7,661.771 2731.5,660C 2733.49,659.626 2735.16,658.793 2736.5,657.5 Z"/></g>
<g><path style="opacity:0.86" fill="#000000" d="M 2771.5,657.5 C 2776.41,656.874 2780.91,657.874 2785,660.5C 2790.21,670.08 2790.55,679.746 2786,689.5C 2778.88,689.042 2771.71,688.709 2764.5,688.5C 2762.05,691.366 2761.88,694.366 2764,697.5C 2765.98,701.87 2768.81,702.536 2772.5,699.5C 2775.29,694.416 2779.62,692.416 2785.5,693.5C 2784.93,697.325 2783.76,700.991 2782,704.5C 2778.31,709.358 2773.48,712.358 2767.5,713.5C 2761.23,713.293 2757.07,710.293 2755,704.5C 2752.29,690.03 2754.95,676.697 2763,664.5C 2765.44,661.546 2768.27,659.213 2771.5,657.5 Z M 2773.5,668.5 C 2778.82,670.131 2780.82,673.797 2779.5,679.5C 2763.64,682.045 2761.64,678.378 2773.5,668.5 Z"/></g>
<g><path style="opacity:0.865" fill="#000000" d="M 2873.5,657.5 C 2882.43,655.544 2888.26,658.877 2891,667.5C 2891.67,673.167 2891.67,678.833 2891,684.5C 2890.9,686.619 2890.07,688.286 2888.5,689.5C 2881.04,688.289 2873.54,688.289 2866,689.5C 2864.99,693.744 2865.82,697.577 2868.5,701C 2873.64,701.222 2877.31,698.889 2879.5,694C 2882.17,693.333 2884.83,693.333 2887.5,694C 2887.22,699.598 2884.89,704.432 2880.5,708.5C 2871.93,715.82 2864.43,714.82 2858,705.5C 2854.96,692.187 2856.62,679.52 2863,667.5C 2865.82,663.36 2869.32,660.027 2873.5,657.5 Z M 2876.5,668.5 C 2881.86,670.249 2883.86,673.916 2882.5,679.5C 2877.83,679.5 2873.17,679.5 2868.5,679.5C 2869.62,674.713 2872.29,671.047 2876.5,668.5 Z"/></g>
<g><path style="opacity:0.85" fill="#000000" d="M 2947.5,657.5 C 2959.99,656.991 2965.66,662.991 2964.5,675.5C 2961.5,675.5 2958.5,675.5 2955.5,675.5C 2955.91,669.066 2953.24,667.233 2947.5,670C 2944.97,672.747 2944.97,675.413 2947.5,678C 2960.76,683.428 2963.92,692.594 2957,705.5C 2953.35,709.708 2949.18,713.042 2944.5,715.5C 2950.07,722.044 2949.4,728.21 2942.5,734C 2933.21,737.683 2930.04,735.183 2933,726.5C 2935.9,726.788 2938.73,726.288 2941.5,725C 2939.84,723.337 2937.84,722.504 2935.5,722.5C 2935.21,718.923 2936.21,715.757 2938.5,713C 2931.4,708.961 2928.4,702.795 2929.5,694.5C 2932.57,694.183 2935.57,694.516 2938.5,695.5C 2942.05,704.603 2946.05,704.77 2950.5,696C 2947.55,692.093 2943.71,689.26 2939,687.5C 2933.02,674.933 2935.86,664.933 2947.5,657.5 Z"/></g>
<g><path style="opacity:0.851" fill="#000000" d="M 3002.5,657.5 C 3008.99,655.845 3013.16,658.178 3015,664.5C 3018.84,658.949 3024.01,656.782 3030.5,658C 3035.2,662.883 3036.7,668.717 3035,675.5C 3032.12,686.788 3029.45,698.122 3027,709.5C 3026.63,710.91 3025.8,711.91 3024.5,712.5C 3022.01,712.218 3019.35,712.218 3016.5,712.5C 3018.53,702.053 3021.03,691.72 3024,681.5C 3024.67,677.833 3024.67,674.167 3024,670.5C 3022.13,669.328 3020.3,669.495 3018.5,671C 3017.33,672.833 3016.17,674.667 3015,676.5C 3011.89,688.141 3008.89,699.807 3006,711.5C 3003.13,712.046 2999.96,712.38 2996.5,712.5C 2998.68,701.784 3001.18,691.117 3004,680.5C 3006.16,668.125 3003.16,666.459 2995,675.5C 2992.32,687.274 2989.32,699.274 2986,711.5C 2983.42,712.101 2980.76,712.434 2978,712.5C 2976.94,712.37 2976.11,711.87 2975.5,711C 2980.54,693.695 2984.88,676.195 2988.5,658.5C 2992.35,657.971 2995.85,658.638 2999,660.5C 3000.52,659.837 3001.69,658.837 3002.5,657.5 Z"/></g>
<g><path style="opacity:0.857" fill="#000000" d="M 3092.5,657.5 C 3102.16,655.999 3108.16,659.999 3110.5,669.5C 3110.5,673.833 3110.5,678.167 3110.5,682.5C 3110.15,685.309 3108.98,687.642 3107,689.5C 3099.88,689.042 3092.71,688.709 3085.5,688.5C 3083.92,693.066 3084.59,697.233 3087.5,701C 3092.48,701.543 3095.81,699.377 3097.5,694.5C 3100.43,693.516 3103.43,693.183 3106.5,693.5C 3105.07,704.266 3099.07,710.932 3088.5,713.5C 3083.15,712.982 3079.32,710.315 3077,705.5C 3073.4,690.307 3076.06,676.307 3085,663.5C 3087.11,660.879 3089.61,658.879 3092.5,657.5 Z M 3095.5,668.5 C 3100.1,670.605 3101.77,674.272 3100.5,679.5C 3096.17,679.5 3091.83,679.5 3087.5,679.5C 3088.62,674.713 3091.29,671.047 3095.5,668.5 Z"/></g>
<g><path style="opacity:0.862" fill="#000000" d="M 3145.5,657.5 C 3154.16,656.074 3159.99,659.407 3163,667.5C 3165.27,680.733 3162.94,693.067 3156,704.5C 3153.6,706.949 3151.1,709.283 3148.5,711.5C 3140.27,715.033 3133.77,713.033 3129,705.5C 3125.6,691.672 3127.6,678.672 3135,666.5C 3138.1,662.886 3141.6,659.886 3145.5,657.5 Z M 3146.5,669.5 C 3149.32,669.081 3151.49,670.081 3153,672.5C 3154.18,680.147 3153.18,687.48 3150,694.5C 3143.92,704.204 3139.42,703.538 3136.5,692.5C 3137.53,683.721 3140.86,676.054 3146.5,669.5 Z"/></g>
<g><path style="opacity:0.87" fill="#000000" d="M 3216.5,657.5 C 3223.86,656.051 3229.03,658.718 3232,665.5C 3233.83,673.192 3233.67,680.859 3231.5,688.5C 3223.74,689.588 3216.08,689.588 3208.5,688.5C 3207.03,692.738 3207.53,696.738 3210,700.5C 3215.18,701.821 3218.68,699.821 3220.5,694.5C 3223.43,693.516 3226.43,693.183 3229.5,693.5C 3228.04,704.466 3221.87,711.133 3211,713.5C 3201.39,710.982 3197.22,704.649 3198.5,694.5C 3198.47,683.637 3201.31,673.637 3207,664.5C 3209.53,661.115 3212.7,658.782 3216.5,657.5 Z M 3217.5,668.5 C 3219.19,669.011 3220.86,669.678 3222.5,670.5C 3223.41,673.421 3223.74,676.421 3223.5,679.5C 3219.12,679.826 3214.78,679.492 3210.5,678.5C 3211.81,674.37 3214.14,671.037 3217.5,668.5 Z"/></g>
<g><path style="opacity:0.833" fill="#000000" d="M 2315.5,658.5 C 2318.83,658.5 2322.17,658.5 2325.5,658.5C 2321.09,676.225 2316.42,693.892 2311.5,711.5C 2308.75,711.897 2305.75,712.23 2302.5,712.5C 2306.43,694.383 2310.76,676.383 2315.5,658.5 Z"/></g>
<g><path style="opacity:0.834" fill="#000000" d="M 2416.5,658.5 C 2419.9,658.18 2423.23,658.513 2426.5,659.5C 2421.94,677.168 2417.61,694.835 2413.5,712.5C 2410.75,711.915 2408.08,711.915 2405.5,712.5C 2404.28,712.113 2403.61,711.28 2403.5,710C 2407.65,692.743 2411.98,675.576 2416.5,658.5 Z"/></g>
<g><path style="opacity:0.833" fill="#000000" d="M 2617.5,658.5 C 2620.83,658.5 2624.17,658.5 2627.5,658.5C 2623.78,674.835 2619.95,691.168 2616,707.5C 2615.64,709.421 2614.81,711.088 2613.5,712.5C 2610.59,711.798 2607.59,711.298 2604.5,711C 2609.14,693.588 2613.47,676.088 2617.5,658.5 Z"/></g>
<g><path style="opacity:0.859" fill="#000000" d="M 2692.5,658.5 C 2695.83,658.5 2699.17,658.5 2702.5,658.5C 2701.24,669.795 2700.74,681.128 2701,692.5C 2705.9,681.552 2710.9,670.552 2716,659.5C 2719.46,658.209 2722.96,658.209 2726.5,659.5C 2717.01,681.155 2706.85,702.489 2696,723.5C 2691.73,729.864 2685.9,732.197 2678.5,730.5C 2677.78,727.106 2678.28,723.772 2680,720.5C 2684.89,720.388 2688.22,718.055 2690,713.5C 2691.22,695.189 2692.06,676.856 2692.5,658.5 Z"/></g>
<g><path style="opacity:0.833" fill="#000000" d="M 2833.5,658.5 C 2836.9,658.18 2840.23,658.513 2843.5,659.5C 2838.88,676.843 2834.38,694.176 2830,711.5C 2827.43,712.245 2824.93,712.579 2822.5,712.5C 2821.12,712 2820.45,711 2820.5,709.5C 2824.71,692.433 2829.04,675.433 2833.5,658.5 Z"/></g>
<g><path style="opacity:0.834" fill="#000000" d="M 2925.5,658.5 C 2928.5,658.5 2931.5,658.5 2934.5,658.5C 2930.74,675.795 2926.41,692.961 2921.5,710C 2920.9,711.301 2919.9,712.135 2918.5,712.5C 2916.67,712.08 2914.67,712.08 2912.5,712.5C 2912.34,709.813 2912.5,707.146 2913,704.5C 2916.86,689.039 2921.02,673.705 2925.5,658.5 Z"/></g>
<g><path style="opacity:0.83" fill="#000000" d="M 2973.5,658.5 C 2976.83,658.5 2980.17,658.5 2983.5,658.5C 2979.27,675.8 2975.11,693.134 2971,710.5C 2969.87,711.944 2968.37,712.61 2966.5,712.5C 2964.66,711.888 2963,711.888 2961.5,712.5C 2961.17,712 2960.83,711.5 2960.5,711C 2965.15,693.565 2969.48,676.065 2973.5,658.5 Z"/></g>
<g><path style="opacity:0.864" fill="#000000" d="M 3173.5,658.5 C 3183.19,658.168 3192.86,658.502 3202.5,659.5C 3201.23,662.796 3200.07,666.129 3199,669.5C 3191.69,679.641 3184.19,689.641 3176.5,699.5C 3181.46,700.494 3186.46,700.827 3191.5,700.5C 3191.36,705.282 3189.69,709.282 3186.5,712.5C 3178.17,712.16 3169.67,712.16 3161,712.5C 3160.18,709.036 3160.52,705.702 3162,702.5C 3169.98,691.691 3178.14,681.024 3186.5,670.5C 3181.21,669.505 3175.87,669.172 3170.5,669.5C 3171.3,665.761 3172.3,662.095 3173.5,658.5 Z"/></g>
<g><path style="opacity:0.794" fill="#000000" d="M 3252.5,696.5 C 3257.83,695.826 3260.16,698.159 3259.5,703.5C 3259.84,711.37 3256.68,713.703 3250,710.5C 3247.96,705.31 3248.8,700.643 3252.5,696.5 Z"/></g>
<g><path style="opacity:0.806" fill="#000000" d="M 2807.5,698.5 C 2810.5,698.5 2813.5,698.5 2816.5,698.5C 2813.95,708.263 2810.29,717.597 2805.5,726.5C 2803.26,727.474 2800.92,727.808 2798.5,727.5C 2800.91,717.607 2803.91,707.94 2807.5,698.5 Z"/></g>
</svg>
